<svg width="40" height="40" viewBox="0 0 40 40" fill="none" xmlns="http://www.w3.org/2000/svg">
<path fill-rule="evenodd" clip-rule="evenodd" d="M20 40C25.3043 40 30.3914 37.8929 34.1421 34.1421C37.8929 30.3914 40 25.3043 40 20C40 14.6957 37.8929 9.60859 34.1421 5.85786C30.3914 2.10714 25.3043 0 20 0C14.6957 0 9.60859 2.10714 5.85786 5.85786C2.10714 9.60859 0 14.6957 0 20C0 25.3043 2.10714 30.3914 5.85786 34.1421C9.60859 37.8929 14.6957 40 20 40ZM29.2675 16.7675C29.7229 16.296 29.9749 15.6645 29.9692 15.009C29.9635 14.3535 29.7006 13.7265 29.237 13.263C28.7735 12.7994 28.1465 12.5365 27.491 12.5308C26.8355 12.5251 26.204 12.7771 25.7325 13.2325L17.5 21.465L14.2675 18.2325C13.796 17.7771 13.1645 17.5251 12.509 17.5308C11.8535 17.5365 11.2265 17.7994 10.763 18.263C10.2994 18.7265 10.0365 19.3535 10.0308 20.009C10.0251 20.6645 10.2771 21.296 10.7325 21.7675L15.7325 26.7675C16.2013 27.2362 16.8371 27.4995 17.5 27.4995C18.1629 27.4995 18.7987 27.2362 19.2675 26.7675L29.2675 16.7675Z" fill="white"/>
</svg>
