<svg width="185" height="181" viewBox="0 0 185 181" fill="none" xmlns="http://www.w3.org/2000/svg">
<mask id="mask0_60_218" style="mask-type:alpha" maskUnits="userSpaceOnUse" x="0" y="0" width="185" height="181">
<path d="M2 84.1122C2 38.947 38.6136 2.3335 83.7787 2.3335H100.917C146.082 2.3335 182.696 38.9471 182.696 84.1123V178.703H2V84.1122Z" stroke="#020F13" stroke-width="4"/>
<path d="M8.81134 84.1673C8.81134 42.1681 42.8584 8.12109 84.8575 8.12109H100.762C142.761 8.12109 176.808 42.1681 176.808 84.1672V172.915H8.81134V84.1673Z" stroke="#020F13"/>
<mask id="mask1_60_218" style="mask-type:alpha" maskUnits="userSpaceOnUse" x="59" y="48" width="74" height="114">
<path d="M60.8581 150.445V149.932" stroke="black" stroke-width="0.775039" stroke-linecap="round"/>
<path d="M75.7603 65.7685C75.7358 65.573 75.3539 65.4615 75.1812 65.3396C74.3685 64.7659 73.7659 62.9498 73.637 62.0153C73.0884 58.0377 74.925 54.3222 77.8942 51.5814C81.1713 48.5564 85.3017 48.7826 89.4647 48.7826C91.1601 48.7826 92.5943 49.2556 94.1938 49.7477C94.898 49.9644 95.503 50.3688 96.2205 50.5627C96.9681 50.7648 98.0514 51.1449 98.6225 51.678C100.501 53.4313 102.442 55.06 103.512 57.4686C103.641 57.757 103.555 58.2186 103.555 58.5302C103.555 59.0447 103.553 58.8827 103.169 58.6267" stroke="black" stroke-width="1.29173" stroke-linecap="round"/>
<path d="M78.6556 77.1567C77.6821 77.035 77.4083 75.6815 77.4867 74.9369C77.6636 73.2566 79.0648 72.0536 80.1997 70.98C81.6642 69.5947 84.0107 68.0909 85.9046 67.4091C87.8809 66.6976 89.9067 65.5866 91.9311 65.1465C94.246 64.6432 96.4139 64.0312 98.8155 64.0312C101.121 64.0312 102.715 64.7167 104.713 65.7684C106.092 66.4942 106.874 66.9192 107.898 68.1705C108.38 68.7592 108.381 71.1616 108.381 70.4009" stroke="black" stroke-width="1.29173" stroke-linecap="round"/>
<path d="M78.4627 77.9286C78.3704 78.667 76.6903 78.5358 76.2429 78.4969C74.84 78.3749 74.1284 76.6784 73.7444 75.5265C72.8624 72.8805 72.2538 69.8754 74.0661 67.5054C74.9103 66.4015 75.7396 65.4295 76.94 64.6959C78.5692 63.7003 80.02 62.4629 81.8298 61.8113C82.6297 61.5234 83.43 61.3026 84.264 61.1358C84.9977 60.989 85.5589 60.5531 86.2693 60.3637C87.8498 59.9422 89.3642 59.2391 90.9125 58.723C95.4745 57.2023 101.794 57.4436 105.389 61.0392C105.909 61.5586 106.679 61.7786 107.223 62.2939C108.921 63.9029 110.135 65.9354 111.04 68.0845C111.411 68.9637 110.746 70.2269 110.461 71.0227C110.268 71.5646 109.936 71.9343 109.539 72.331C109.283 72.5872 108.798 73.0724 109.346 72.524" stroke="black" stroke-width="1.29173" stroke-linecap="round"/>
<path d="M78.0766 75.6128C77.8475 75.6414 78.9668 78.3427 79.0417 78.6797C79.2925 79.8083 79.6208 81.2118 79.6208 82.3793C79.6208 83.8934 79.8451 85.4799 79.9961 86.9903C80.1865 88.8947 79.6208 90.9797 79.6208 92.8989C79.6208 97.453 79.0417 101.975 79.0417 106.539C79.0417 108.773 78.7453 110.895 78.4198 113.102C78.2803 114.047 78.0984 114.955 78.0766 115.911C78.0632 116.502 77.6836 116.731 78.2696 116.34" stroke="black" stroke-width="1.29173" stroke-linecap="round"/>
<path d="M107.609 70.98C108.912 70.817 109.153 84.3192 109.153 85.7354C109.153 91.3659 108.188 97.0535 108.188 102.635" stroke="black" stroke-width="1.29173" stroke-linecap="round"/>
<path d="M107.223 106.11C106.979 106.423 107.223 107.713 107.223 108.072C107.223 109.906 107.205 111.899 106.922 113.713C106.718 115.029 106.538 116.345 106.258 117.648C106.183 117.995 106.065 119.259 106.065 119.235" stroke="black" stroke-width="1.29173" stroke-linecap="round"/>
<path d="M100.853 102.635C101.262 101.358 101.691 100.512 103.212 100.512C104.466 100.512 105.346 100.918 106.215 101.82C106.799 102.427 107.312 103.334 108.338 102.979C108.651 102.87 109.818 101.642 109.153 101.863" stroke="black" stroke-width="1.29173" stroke-linecap="round"/>
<path d="M100.853 103.022C100.431 103.022 101.582 105.726 101.818 106.067C102.693 107.33 104.284 106.328 105.293 105.874C106.067 105.526 106.787 105.422 107.416 104.759C107.859 104.291 108.282 103.675 108.574 103.107C108.85 102.571 109.024 102.185 108.381 102.829" stroke="black" stroke-width="1.29173" stroke-linecap="round"/>
<path d="M100.853 102.249C100.853 101.107 100.771 100.883 99.8879 100.126C98.7357 99.1385 97.3149 99.6411 96.2205 100.469C95.0382 101.364 94.4866 102.718 93.1751 103.515C92.3253 104.031 90.9568 102.375 91.202 103.601" stroke="black" stroke-width="1.29173" stroke-linecap="round"/>
<path d="M91.395 103.601C90.9406 103.544 91.3458 104.69 91.6095 105.048C92.1597 105.795 93.3446 106.774 94.2474 107.032C95.28 107.327 97.0021 106.78 97.8612 106.185C98.7922 105.54 100.274 103.794 100.274 103.794" stroke="black" stroke-width="1.29173" stroke-linecap="round"/>
<path d="M98.7298 98.0029C99.4516 97.3614 99.9703 97.2899 100.96 97.3166C102.757 97.3652 101.717 99.4586 101.239 100.319" stroke="black" stroke-width="1.29173" stroke-linecap="round"/>
<path d="M91.9741 98.389C91.873 99.198 90.413 97.664 89.9796 96.9735C88.794 95.0846 88.3316 92.2152 88.3067 90.0033C88.2759 87.2622 88.428 84.8446 90.1083 82.6042C91.1268 81.2461 92.8389 80.9586 94.1939 81.8857C95.5859 82.8381 95.9716 84.8401 96.5101 86.3359C97.2697 88.4457 97.4703 91.0193 96.8962 93.1882C96.4839 94.7456 95.801 97.0383 94.5585 98.1853C93.9481 98.7486 92.4357 98.0449 92.1672 98.582" stroke="black" stroke-width="1.29173" stroke-linecap="round"/>
<path d="M103.362 96.8449C101.939 96.8449 101.817 93.7128 101.625 92.7057C101.271 90.8477 101.239 89.0953 101.239 87.2046C101.239 85.6482 101.645 83.9467 102.783 82.8402C104.026 81.6319 105.66 82.3579 106.408 83.7195C107.225 85.2089 107.929 86.8828 108.274 88.5558C108.686 90.5593 108.381 92.4942 108.381 94.518C108.381 95.7775 107.462 97.743 106.022 97.81C105.138 97.8511 104.925 97.6761 104.134 97.4669C103.782 97.3735 103.339 97.231 102.976 97.231" stroke="black" stroke-width="1.29173" stroke-linecap="round"/>
<path d="M104.714 83.1406C104.565 84.3259 103.892 85.6649 103.759 86.9903C103.638 88.2004 103.6 89.428 103.405 90.6255C103.323 91.1305 104.49 91.6019 104.885 91.9124C106.165 92.9182 104.913 93.1659 104.37 94.1428C104.017 94.7785 104.327 95.1899 104.327 95.88C104.327 96.6578 104.815 97.6496 104.134 96.4591" stroke="black" stroke-width="1.29173" stroke-linecap="round"/>
<path d="M93.7113 82.7544C93.6898 82.9261 93.0932 83.0937 92.8963 83.2906C92.1289 84.058 91.6839 85.3661 91.5773 86.4325C91.4365 87.8407 91.0862 89.0735 91.2127 90.5289C91.2687 91.173 92.663 91.0096 93.0893 91.4832C93.4017 91.8304 91.882 93.6845 91.9848 94.2499C92.1311 95.0549 92.1357 95.8666 92.3601 96.6519C92.4466 96.9547 92.9515 97.8162 92.5531 97.617" stroke="black" stroke-width="1.29173" stroke-linecap="round"/>
<path d="M86.7625 83.5264C86.4328 83.5676 86.3765 84.0951 86.3765 83.4299C86.3765 82.5365 87.04 81.3971 87.5561 80.7169C88.5516 79.4046 89.8089 78.9115 91.3521 78.5079C91.7285 78.4094 94.281 78.2842 92.9392 78.5079" stroke="black" stroke-width="1.29173" stroke-linecap="round"/>
<path d="M100.274 81.7892C100.121 81.8062 99.8416 82.2001 99.8987 82.0573C100.164 81.393 100.519 80.7615 100.992 80.2236C102.376 78.6529 104.234 78.0019 106.258 78.5079" stroke="black" stroke-width="1.29173" stroke-linecap="round"/>
<path d="M94.5013 108.345C94.5602 107.774 94.7307 107.298 94.5013 108.345V108.345Z" fill="black"/>
<path d="M97.1856 106.882C99.0692 106.882 99.779 108.449 101.582 108.769C102.316 108.9 102.841 108.429 103.362 109.241C104.033 110.285 103.641 111.401 102.933 112.286C100.786 114.971 96.1622 112.995 94.9123 110.356C94.6185 109.736 94.4833 109.366 94.4833 108.662C94.4833 107.989 94.7855 107.066 94.4833 108.426" stroke="black" stroke-width="1.29173" stroke-linecap="round"/>
<path d="M95.2555 109.584C94.4862 109.68 95.72 109.34 95.9847 109.155C96.6742 108.672 98.0949 110.275 97.7648 110.935" stroke="black" stroke-width="1.29173" stroke-linecap="round"/>
<path d="M97.3787 110.163C97.0145 110.163 97.7561 109.925 97.8505 109.885C98.0891 109.782 99.0163 110.181 99.2017 110.357C99.6373 110.768 99.962 111.22 100.092 111.804C100.143 112.036 100.274 112.783 100.274 112.673" stroke="black" stroke-width="1.29173" stroke-linecap="round"/>
<path d="M93.7114 114.796C94.1369 115.275 94.3321 115.774 94.9767 116.051C95.7559 116.384 96.536 116.317 97.1857 116.533" stroke="black" stroke-width="1.29173" stroke-linecap="round"/>
<path d="M90.816 118.463C91.0392 120.249 90.0576 122.539 90.623 124.447C90.959 125.581 90.697 125.219 91.4058 124.554C92.102 123.902 92.9012 122.882 93.722 122.42C95.3754 121.49 96.7341 120.791 98.6226 120.394C99.2333 120.265 99.8468 120.042 100.467 120.008C100.96 119.98 101.14 119.974 100.66 119.815" stroke="black" stroke-width="1.29173" stroke-linecap="round"/>
<path d="M100.853 120.2C101.077 121.989 101.046 127.407 101.046 125.605" stroke="black" stroke-width="1.29173" stroke-linecap="round"/>
<path d="M90.8159 119.043C90.8495 118.808 93.1248 120.24 93.2823 120.351C94.3714 121.119 95.329 121.663 96.5208 122.281C97.4883 122.783 98.4518 123.179 99.4161 123.675C99.9199 123.934 100.66 125.4 100.66 124.833" stroke="black" stroke-width="1.29173" stroke-linecap="round"/>
<path d="M90.3446 121.64C90.3715 121.702 90.3963 121.762 90.4193 121.82C90.4284 121.842 90.4183 121.734 90.3446 121.64Z" fill="black"/>
<path d="M75.9534 117.498C76.775 117.407 77.5734 117.009 78.4305 116.919C79.3523 116.822 80.2361 116.901 81.165 116.919C83.4805 116.963 85.5457 117.799 87.5347 118.849C88.6429 119.434 89.1637 120.199 89.9367 120.972C90.1475 121.183 90.3066 121.538 90.4193 121.82C90.4318 121.851 90.4083 121.637 90.237 121.551" stroke="black" stroke-width="1.29173" stroke-linecap="round"/>
<path d="M92.1671 124.447C92.1671 124.241 92.4277 124.877 92.5103 125.026C92.7526 125.462 93.0357 125.734 93.2287 126.27C93.7281 127.657 94.5062 129.032 94.8265 130.473C95.1772 132.051 95.5871 133.577 95.931 135.159C96.0104 135.525 96.6021 137.179 96.2206 136.607" stroke="black" stroke-width="1.29173" stroke-linecap="round"/>
<path d="M75.7604 118.077C76.7652 118.077 78.0106 119.234 78.7522 119.814C80.3041 121.029 81.6976 122.677 82.4196 124.522C82.6063 124.999 82.748 125.535 82.9987 125.98C83.368 126.637 83.6024 125.882 83.9102 125.562C84.2541 125.205 86.6429 123.849 86.5267 124.297C86.2168 125.492 85.9905 126.686 85.9905 127.921C85.9905 128.688 85.9878 128.513 86.7411 128.886C88.679 129.848 90.4552 131.162 92.253 132.361C93.1498 132.959 97.3028 136.471 95.8346 137.572" stroke="black" stroke-width="1.29173" stroke-linecap="round"/>
<path d="M106.258 118.85C106.229 119.078 105.926 119.345 105.786 119.525C105.251 120.213 104.857 121.16 104.435 121.927C103.532 123.569 102.662 125.058 101.625 126.613C100.359 128.513 99.5013 130.766 98.837 132.94C98.5442 133.898 98.1169 134.862 97.9148 135.835C97.8518 136.139 97.1757 137.578 97.5716 137.38" stroke="black" stroke-width="1.29173" stroke-linecap="round"/>
<path d="M96.9927 137.766C96.9927 137.132 97.4373 136.609 97.8076 136.093C98.7009 134.849 99.593 133.417 100.639 132.297C101.127 131.774 101.456 131.314 102.161 131.053C102.923 130.771 102.939 130.847 102.826 130.002C102.688 128.965 103 128.329 103.159 127.375C103.176 127.27 104.06 128.427 104.231 128.694C104.75 129.501 107.049 126.604 107.802 126.227C108.195 126.031 108.66 125.555 108.188 126.184" stroke="black" stroke-width="1.29173" stroke-linecap="round"/>
<path d="M106.451 119.042C106.451 118.824 106.92 119.312 107.03 119.428C107.575 120.006 108.071 121.053 108.381 121.787C108.741 122.64 108.865 123.355 109.003 124.254C109.057 124.604 109.038 125.759 109.346 125.605" stroke="black" stroke-width="1.29173" stroke-linecap="round"/>
<path d="M108.188 127.342C108.188 125.922 107.644 130.134 107.266 131.503C106.989 132.503 106.88 133.555 106.644 134.57C106.395 135.639 106.031 136.789 105.871 137.862C105.567 139.914 105.372 142.343 105.571 144.403C105.588 144.58 105.684 146.843 105.292 146.451" stroke="black" stroke-width="1.29173" stroke-linecap="round"/>
<path d="M75.3766 125.008C75.3946 124.874 75.4296 124.716 75.385 124.961C75.3822 124.977 75.3794 124.993 75.3766 125.008Z" fill="black"/>
<path d="M75.3743 125.026C75.3915 124.889 75.4316 124.705 75.385 124.961C75.1952 126.005 75.1142 127.085 74.9454 128.136C74.4938 130.945 73.5506 133.561 73.2082 136.414C72.9012 138.972 72.865 146.711 72.865 144.135" stroke="black" stroke-width="1.29173" stroke-linecap="round"/>
<path d="M72.865 145.486C72.385 145.06 72.984 145.293 73.4548 145.293C75.3735 145.293 77.5892 144.35 79.4277 143.792C81.1383 143.273 82.8513 142.499 84.6608 142.409C86.4993 142.317 88.3018 142.571 90.1297 142.591C94.0634 142.634 97.3275 143.438 101.003 144.757C102.284 145.217 103.328 146.101 104.51 146.741C104.786 146.89 105.893 147.865 105.679 147.223" stroke="black" stroke-width="1.29173" stroke-linecap="round"/>
<path d="M69.2257 132.578C69.2076 132.714 69.1977 132.849 69.1977 132.983C69.1977 133.739 69.2647 133.068 69.2257 132.578Z" fill="black"/>
<path d="M74.9883 125.219C72.2155 125.219 71.0039 128.274 69.9698 130.431C69.6073 131.187 69.1977 132.124 69.1977 132.983C69.1977 133.862 69.2881 132.813 69.1977 132.361" stroke="black" stroke-width="1.29173" stroke-linecap="round"/>
<path d="M63.9861 127.728C64.7314 127.654 65.2072 126.947 66.0236 126.935C67.0008 126.92 68.0982 127.667 68.5328 128.5C68.97 129.338 70.028 132.11 69.1977 132.94" stroke="black" stroke-width="1.29173" stroke-linecap="round"/>
<path d="M63.4071 128.114C63.7396 125.122 65.6101 121.956 67.8895 120.008C69.3286 118.777 71.2267 117.884 73.0474 117.402C73.8464 117.19 74.617 116.89 75.4387 116.769C76.4717 116.617 76.1485 116.834 75.5674 117.498" stroke="black" stroke-width="1.29173" stroke-linecap="round"/>
<path d="M63.2139 128.5C63.2139 129.073 64.303 130.169 63.793 129.659" stroke="black" stroke-width="1.29173" stroke-linecap="round"/>
<path d="M66.8813 132.747C66.9605 133.38 69.2453 133.156 68.8115 132.94" stroke="black" stroke-width="1.29173" stroke-linecap="round"/>
<path d="M107.609 130.237C107.719 131.115 110.731 130.488 111.18 130.43C113.479 130.134 115.507 129.007 117.26 127.546C118.843 126.226 120.378 124.996 121.849 123.525C122.461 122.913 122.636 122.506 122.965 121.755C123.225 121.161 123.201 121.173 122.857 121.744" stroke="black" stroke-width="1.29173" stroke-linecap="round"/>
<path d="M109.153 121.937C109.132 121.941 109.732 122.113 110.075 121.98C111.22 121.537 112.841 120.824 113.775 120.007C114.415 119.447 114.945 118.88 115.523 118.27C115.875 117.898 116.033 117.423 116.112 118.174C116.29 119.86 118.85 121.319 120.348 121.358C121.032 121.376 121.757 121.412 122.375 121.069C122.906 120.774 122.792 120.738 122.471 121.165" stroke="black" stroke-width="1.29173" stroke-linecap="round"/>
<path d="M115.523 118.463C115.976 118.406 116.33 117.758 116.788 117.605C117.088 117.505 119.014 117.691 118.418 117.691" stroke="black" stroke-width="1.29173" stroke-linecap="round"/>
<path d="M65.7233 127.535C65.0012 127.625 64.0087 130.715 63.7502 131.331C63.144 132.777 62.8524 134.419 62.8279 135.985C62.8215 136.397 63.021 138.876 63.021 137.379" stroke="black" stroke-width="1.29173" stroke-linecap="round"/>
<path d="M68.0394 129.659C67.8097 129.716 67.689 130.125 67.6426 130.334C67.4231 131.322 66.931 132.426 66.6025 133.412C66.3432 134.19 66.5061 135.095 66.6454 135.878C66.673 136.034 66.7943 137.36 67.0743 136.8" stroke="black" stroke-width="1.29173" stroke-linecap="round"/>
<path d="M117.453 120.007C117.537 119.333 118.836 118.293 119.158 117.713C119.85 116.467 120.333 115.119 120.927 113.831C121.431 112.74 121.999 111.389 122.075 110.185C122.11 109.618 122.085 107.092 122.085 109.005" stroke="black" stroke-width="1.29173" stroke-linecap="round"/>
<path d="M121.892 120.393C121.609 120.717 122.309 119.86 122.429 119.621C123.252 117.975 123.836 116.348 124.391 114.592C124.811 113.261 125.073 111.636 125.184 110.249C125.237 109.598 125.367 107.83 125.367 109.584" stroke="black" stroke-width="1.29173" stroke-linecap="round"/>
<path d="M120.734 104.759C120.734 104.51 120.378 105.222 120.359 105.359C120.244 106.166 120.015 107.903 121.217 108.029C122.238 108.137 125.3 108.177 126.032 107.246C126.379 106.805 126.446 106.017 126.289 105.488C126.095 104.832 126.303 105.145 127.018 105.145C127.722 105.145 128.196 104.737 128.605 104.18C128.757 103.973 129.283 102.551 128.841 103.214" stroke="black" stroke-width="1.29173" stroke-linecap="round"/>
<path d="M123.631 99.3576C123.601 99.3533 123.572 99.3485 123.544 99.3433C123.233 99.2867 123.36 99.1155 123.631 99.3576Z" fill="black"/>
<path d="M120.734 104.759C120.183 104.697 119.507 104.327 119.018 104.083C118.057 103.602 118.793 101.025 118.804 100.212C118.842 97.4839 118.376 94.3569 122.085 94.3569C123.864 94.3569 128.304 98.9387 125.152 99.3326C124.668 99.3931 124.03 99.4318 123.544 99.3433C123.217 99.2839 123.374 99.0982 123.672 99.3969C124.829 100.553 124.612 101.706 123.823 103.021" stroke="black" stroke-width="1.29173" stroke-linecap="round"/>
<path d="M120.734 93.9498C120.44 94.2071 120.788 93.1235 120.863 92.9203C121.572 90.9868 122.203 89.0351 123.136 87.194C123.653 86.1737 124.771 84.6044 125.924 85.9501C126.287 86.3733 126.441 86.9997 126.525 87.5372C126.867 89.7399 126.651 92.1129 126.718 94.3358" stroke="black" stroke-width="1.29173" stroke-linecap="round"/>
<path d="M126.525 92.5986C129.435 92.922 130.74 96.3654 129.377 98.8182C129.11 99.2988 128.818 99.9904 128.155 99.8048C127.801 99.7056 127.127 99.407 127.104 98.9683C127.078 98.4678 127.293 97.2311 127.876 97.2311" stroke="black" stroke-width="1.29173" stroke-linecap="round"/>
<path d="M129.999 98.389C130.042 98.0483 131.309 98.5337 131.501 98.7322C132.616 99.8902 132.098 101.782 131.168 102.829C130.4 103.693 129.413 103.95 129.034 102.528C128.809 101.683 129.647 100.639 129.613 100.705" stroke="black" stroke-width="1.29173" stroke-linecap="round"/>
<path d="M62.2488 141.626C62.1839 141.106 61.5273 140.93 61.4875 140.253C61.4053 138.856 62.8 138.123 63.8788 137.476C64.6064 137.039 65.3653 136.414 66.2594 136.414C67.8284 136.414 68.5631 138.095 69.0046 139.309" stroke="black" stroke-width="1.29173" stroke-linecap="round"/>
<path d="M62.0558 141.819C62.0277 142.044 61.5686 142.135 61.391 142.312C60.6923 143.011 59.8919 144.131 59.7396 145.122C59.5775 146.175 59.5516 147.619 60.5117 148.339C60.8334 148.58 61.6369 148.768 61.4768 148.768" stroke="black" stroke-width="1.29173" stroke-linecap="round"/>
<path d="M61.6698 145.679C61.5545 146.717 61.2865 147.631 61.8629 148.66C62.0269 148.953 63.2257 150.142 63.021 149.733" stroke="black" stroke-width="1.29173" stroke-linecap="round"/>
<path d="M64.5651 146.451C64.4638 147.363 63.9057 148.247 63.7073 149.153C63.4758 150.212 63.4624 151.442 63.021 152.435C62.3924 153.849 62.2787 158.899 64.7582 156.488C66.0521 155.23 65.5302 153.585 65.5302 152.006C65.5302 151.023 65.5929 150.122 65.7125 149.164C65.7405 148.941 65.9163 148.139 65.9163 148.767" stroke="black" stroke-width="1.29173" stroke-linecap="round"/>
<path d="M64.7581 144.907C64.7581 146.314 65.8843 147.599 67.2567 147.427C67.9656 147.339 68.4331 147.247 69.0475 146.837C69.407 146.598 70.5352 145.334 70.3557 145.872" stroke="black" stroke-width="1.29173" stroke-linecap="round"/>
<path d="M69.1977 141.819C67.8446 141.875 67.7287 144.66 67.4605 145.679" stroke="black" stroke-width="1.29173" stroke-linecap="round"/>
<path d="M68.6185 142.398C68.6185 143.533 70.8888 144.493 71.7927 144.8C73.7131 145.452 75.5989 146.258 77.3152 147.331C78.8472 148.288 80.2206 149.713 81.4008 151.041C81.4978 151.15 80.236 151.084 80.0068 151.084C79.4695 151.084 79.0302 151.681 78.7414 152.049C78.4177 152.461 77.6179 153.625 77.0149 153.486C76.0172 153.256 75.2122 152.415 74.3234 151.952C73.6885 151.622 73.2102 151.13 72.7685 150.591C72.4094 150.152 71.7723 149.666 71.5567 149.154C71.2736 148.481 72.1565 147.821 71.9428 147.073C71.7829 146.514 71.4201 145.509 70.8275 145.293C70.164 145.052 69.1537 144.776 68.6185 144.317C68.3059 144.049 67.6621 143.375 68.2325 144.135" stroke="black" stroke-width="1.29173" stroke-linecap="round"/>
<path d="M68.8115 138.923C68.8115 139.673 70.2735 140.31 70.8918 140.425C71.6896 140.573 72.4104 140.336 72.7148 141.282C73.0164 142.221 73.2273 143.215 72.5861 144.092C72.3706 144.387 70.4256 145.071 71.1277 144.135" stroke="black" stroke-width="1.29173" stroke-linecap="round"/>
<path d="M66.1092 141.047C65.292 141.149 65.3328 143.063 65.5302 143.556" stroke="black" stroke-width="1.29173" stroke-linecap="round"/>
<path d="M64.179 141.24C63.5322 141.967 63.2338 142.826 63.0209 143.749" stroke="black" stroke-width="1.29173" stroke-linecap="round"/>
<path d="M71.8999 150.698C71.511 150.746 71.8999 152.26 71.8999 152.489C71.8999 154.697 71.6705 156.804 71.5139 158.998" stroke="black" stroke-width="1.29173" stroke-linecap="round"/>
<path d="M92.1671 144.135C92.0199 144.448 91.9835 144.672 91.9634 145.015C91.8662 146.667 91.583 148.296 91.202 149.904C90.5487 152.663 90.0659 155.634 90.6229 158.419" stroke="black" stroke-width="1.29173" stroke-linecap="round"/>
<path d="M91.0091 152.821C90.9926 152.953 93.4652 150.897 93.8615 150.118C94.5902 148.687 95.2715 146.952 95.7166 145.411C95.8586 144.919 96.0085 142.736 96.4136 143.749" stroke="black" stroke-width="1.29173" stroke-linecap="round"/>
<path d="M104.713 147.417C104.713 148.833 104.52 150.234 104.52 151.652C104.52 154.639 104.924 157.62 105.486 160.542" stroke="black" stroke-width="1.29173" stroke-linecap="round"/>
<path d="M85.2394 50.876C85.211 51.1027 84.3098 51.3957 84.0969 51.5873C83.4321 52.1857 82.0508 54.4452 83.9244 54.4759C84.7156 54.4889 86.3007 53.977 86.5974 53.161C86.8542 52.4549 85.9794 50.5239 85.2394 51.264" stroke="black" stroke-width="1.29173" stroke-linecap="round"/>
<path d="M88.7315 51.0703C88.7315 51.6404 88.6324 53.739 88.9255 53.5924" stroke="black" stroke-width="1.29173" stroke-linecap="round"/>
<path d="M89.1195 53.3986C88.7147 53.4492 88.8429 54.0354 89.1195 53.6896C89.2534 53.5222 90.6532 53.299 90.8656 53.2908C91.7877 53.2553 92.5906 53.3383 93.5062 53.3878C94.1153 53.4207 94.6778 53.3514 95.22 53.6788C95.3755 53.7727 96.1276 54.4162 95.9098 53.9806" stroke="black" stroke-width="1.29173" stroke-linecap="round"/>
<path d="M89.1194 51.4581C90.1514 50.5408 91.3854 51.1512 92.6224 51.2749C93.7798 51.3907 95.2356 52.6417 95.5217 53.7863" stroke="black" stroke-width="1.29173" stroke-linecap="round"/>
<path d="M79.6131 78.2314C79.2804 78.6057 79.4957 78.4185 79.6562 78.0374C80.1743 76.8068 80.4373 75.4797 80.9819 74.2542C81.9184 72.1471 83.2207 70.2605 84.819 68.5956C85.3833 68.0078 86.0266 67.5132 86.7052 67.0651C87.023 66.8552 87.5518 66.777 87.1795 66.5908" stroke="black" stroke-width="1.29173" stroke-linecap="round"/>
<path d="M80.3891 86.38C80.7098 86.0192 80.7366 85.4801 80.9064 85.0435C81.5247 83.4537 82.433 82.0332 83.407 80.6459C85.1747 78.1283 86.6587 75.2601 88.8393 73.0795C91.0395 70.8793 93.5681 68.624 96.1901 66.9359C97.0937 66.3541 97.9855 65.5339 99.0248 65.2221C99.2729 65.1477 100.183 64.8499 99.9841 64.6509" stroke="black" stroke-width="1.29173" stroke-linecap="round"/>
<path d="M79.4191 98.0205C79.4191 97.5567 79.837 97.257 80.0873 96.878C80.9696 95.542 81.906 94.319 82.9113 93.0625C84.1809 91.4754 88.8706 87.5806 87.1795 88.7081" stroke="black" stroke-width="1.29173" stroke-linecap="round"/>
<path d="M79.4191 105.199C79.901 104.657 80.1917 103.767 80.6801 103.151C81.7993 101.74 82.7414 100.624 84.0645 99.3787C84.3973 99.0655 88.122 95.665 88.5375 96.0805" stroke="black" stroke-width="1.29173" stroke-linecap="round"/>
<path d="M97.462 88.7081C98.2495 87.9206 99.7461 85.9773 100.954 86.38" stroke="black" stroke-width="1.29173" stroke-linecap="round"/>
<path d="M95.7159 83.2758C96.0736 83.2311 96.7776 82.3263 96.9769 82.101C98.2071 80.7104 99.635 79.6055 101.062 78.4256C102.74 77.0381 104.244 75.3775 106.182 74.3514C106.773 74.0384 108.607 73.3813 107.938 73.3813" stroke="black" stroke-width="1.29173" stroke-linecap="round"/>
<path d="M105.028 82.3058C105.796 81.5382 106.498 80.8298 107.41 80.204C107.602 80.0723 108.52 79.2893 108.52 79.3956" stroke="black" stroke-width="1.29173" stroke-linecap="round"/>
<path d="M78.837 113.929C80.4281 112.139 82.0787 110.484 84.1615 109.176C85.9236 108.07 87.5907 106.863 89.1626 105.501C89.3486 105.34 91.326 103.696 91.0596 104.229" stroke="black" stroke-width="1.29173" stroke-linecap="round"/>
<path d="M83.1052 117.227C83.1587 116.746 83.9946 116.089 84.2908 115.762C84.9385 115.045 85.6952 114.612 86.5004 114.102C87.3888 113.538 88.1501 112.709 88.9147 111.989C90.0558 110.915 90.8851 109.696 92.2668 108.885C92.4775 108.761 94.4232 107.59 94.1638 108.109" stroke="black" stroke-width="1.29173" stroke-linecap="round"/>
<path d="M105.028 100.737C105.134 99.8886 107.567 99.2552 108.132 99.1846" stroke="black" stroke-width="1.29173" stroke-linecap="round"/>
<path d="M101.527 121.946C101.527 120.912 102.263 119.94 102.939 119.215C103.501 118.611 104.092 117.998 104.72 117.461C104.884 117.321 106.055 116.335 105.846 116.963" stroke="black" stroke-width="1.29173" stroke-linecap="round"/>
<path d="M78.4642 129.25C78.1397 129.574 77.9631 130.007 77.7242 130.396C76.8643 131.795 75.8289 133.112 75.1561 134.618C74.7879 135.442 74.4723 136.239 74.0534 137.041C73.8717 137.389 73.5198 137.895 73.7632 138.26" stroke="black" stroke-width="0.516692" stroke-linecap="round"/>
<path d="M79.1173 131.469C78.9097 131.495 78.5605 132.305 78.4789 132.441C77.8212 133.544 77.2888 134.712 76.5927 135.793C76.1854 136.426 75.7103 137.024 75.3884 137.708C74.8582 138.835 74.3143 139.957 73.7634 141.074C73.564 141.479 73.0243 142.069 73.5022 142.308" stroke="black" stroke-width="0.516692" stroke-linecap="round"/>
<path d="M80.1618 133.689C79.4195 134.432 79.0838 135.493 78.544 136.381C77.7862 137.627 77.1431 138.878 76.4402 140.153C76.1097 140.753 73.6383 144.664 74.0244 145.05" stroke="black" stroke-width="0.516692" stroke-linecap="round"/>
<path d="M80.9454 136.17C80.9454 136.761 80.2678 137.371 79.9588 137.81C79.2634 138.799 78.651 139.892 78.0653 140.951C77.5654 141.855 77.019 142.748 76.5709 143.679C76.3893 144.056 75.9832 145.208 75.9832 144.789" stroke="black" stroke-width="0.516692" stroke-linecap="round"/>
<path d="M81.9901 137.999C81.9745 138.123 81.8107 138.293 81.7289 138.39C81.1364 139.094 80.6627 140.172 80.2345 140.995C79.7645 141.897 79.3254 142.816 78.9431 143.759C78.8349 144.026 78.7187 144.531 78.4643 144.658" stroke="black" stroke-width="0.516692" stroke-linecap="round"/>
<path d="M83.0347 139.696C83.0347 139.64 82.6277 140.383 82.5559 140.523C82.4009 140.826 81.0879 142.901 81.4677 143.091" stroke="black" stroke-width="0.516692" stroke-linecap="round"/>
<path d="M84.863 140.218C84.7792 140.972 83.2472 142.21 83.5571 142.83" stroke="black" stroke-width="0.516692" stroke-linecap="round"/>
<path d="M87.0828 140.871C87.0197 141.439 86.6234 142.167 86.4299 142.699" stroke="black" stroke-width="0.516692" stroke-linecap="round"/>
<path d="M94.1344 123.896C94.049 124.664 93.6769 125.468 93.612 126.246" stroke="black" stroke-width="0.516692" stroke-linecap="round"/>
<path d="M95.9625 124.418C95.6961 124.451 95.5725 125.513 95.5272 125.666C95.0729 127.195 94.5405 128.699 94.3955 130.294" stroke="black" stroke-width="0.516692" stroke-linecap="round"/>
<path d="M97.1377 126.377C97.1377 125.869 97.2054 125.817 97.0072 126.478C96.4223 128.428 95.4672 130.366 95.179 132.384" stroke="black" stroke-width="0.516692" stroke-linecap="round"/>
<path d="M98.966 127.16C98.9488 127.348 98.885 127.511 98.8063 127.682C98.3262 128.73 97.8968 129.798 97.486 130.875C96.9566 132.262 96.5694 133.743 96.2237 135.126" stroke="black" stroke-width="0.516692" stroke-linecap="round"/>
<path d="M100.794 126.899C100.781 127.021 100.728 127.063 100.664 127.16" stroke="black" stroke-width="0.516692" stroke-linecap="round"/>
<path d="M93.2201 151.318C93.4308 151.378 92.43 153.498 92.4076 153.552C91.8449 154.929 90.9673 156.637 91.1308 158.108" stroke="black" stroke-width="0.516692" stroke-linecap="round"/>
<path d="M95.9626 147.792C95.8636 148.585 95.4222 149.674 95.2081 150.448C94.6109 152.605 93.8252 154.704 93.2348 156.861C93.1721 157.09 92.622 159.061 92.9592 158.892" stroke="black" stroke-width="0.516692" stroke-linecap="round"/>
<path d="M97.3988 149.359C97.3848 149.486 97.3166 149.564 97.2682 149.679C96.6458 151.157 96.2314 152.766 95.8028 154.307C95.4326 155.638 95.1145 156.982 94.7364 158.312C94.5016 159.137 94.3312 159.755 94.3954 160.59" stroke="black" stroke-width="0.516692" stroke-linecap="round"/>
<path d="M97.5295 154.713C97.574 154.313 97.2899 155.583 97.2248 155.743C96.5922 157.302 95.7152 159.119 95.9625 160.851" stroke="black" stroke-width="0.516692" stroke-linecap="round"/>
<path d="M98.8353 156.803C98.8353 157.963 97.9212 158.994 97.9212 160.198" stroke="black" stroke-width="0.516692" stroke-linecap="round"/>
<path d="M100.141 157.717C100.141 158.327 99.8955 158.961 99.7493 159.545" stroke="black" stroke-width="0.516692" stroke-linecap="round"/>
<path d="M110.457 122.459C110.441 122.591 110.347 122.838 110.298 122.981C109.558 125.132 109.05 127.435 108.499 129.641" stroke="black" stroke-width="0.516692" stroke-linecap="round"/>
<path d="M111.502 122.459C111.502 123.44 110.969 124.597 110.747 125.535C110.346 127.236 109.76 128.95 109.543 130.686" stroke="black" stroke-width="0.516692" stroke-linecap="round"/>
<path d="M112.938 124.287C112.938 124.872 112.654 125.431 112.46 125.97C112.012 127.211 111.525 128.333 111.371 129.641" stroke="black" stroke-width="0.516692" stroke-linecap="round"/>
<path d="M114.375 126.246C114.375 127.347 113.604 128.631 113.2 129.641" stroke="black" stroke-width="0.516692" stroke-linecap="round"/>
<path d="M116.464 126.246C115.998 126.829 115.811 127.901 115.55 128.597" stroke="black" stroke-width="0.516692" stroke-linecap="round"/>
<path d="M81.4677 103.524C81.4406 103.768 81.1781 104.032 81.0904 104.264C80.5056 105.815 79.9001 107.356 79.2477 108.878" stroke="black" stroke-width="0.516692" stroke-linecap="round"/>
<path d="M82.5123 104.569C81.9723 105.649 81.4898 106.756 80.9743 107.848C80.1652 109.562 79.0677 111.304 78.7254 113.187" stroke="black" stroke-width="0.516692" stroke-linecap="round"/>
<path d="M83.557 106.136C83.4903 106.67 82.7827 107.684 82.5559 108.095C81.0795 110.768 79.5751 113.398 78.3337 116.191" stroke="black" stroke-width="0.516692" stroke-linecap="round"/>
<path d="M84.9935 108.095C84.8731 109.299 83.7716 110.706 83.2234 111.708C82.4428 113.133 81.0507 114.801 80.8148 116.452" stroke="black" stroke-width="0.516692" stroke-linecap="round"/>
<path d="M85.7769 110.707C85.7294 111.23 85.3382 111.738 85.095 112.172C84.2286 113.719 83.3498 115.187 82.7735 116.844" stroke="black" stroke-width="0.516692" stroke-linecap="round"/>
<path d="M87.6052 111.621C87.4413 111.641 87.2733 112.277 87.1989 112.411C86.5503 113.583 85.8807 114.745 85.3272 115.966C85.0037 116.68 84.6957 117.35 84.8629 118.019" stroke="black" stroke-width="0.516692" stroke-linecap="round"/>
<path d="M89.3027 113.579C88.1978 115.079 87.4389 116.913 86.5605 118.541" stroke="black" stroke-width="0.516692" stroke-linecap="round"/>
<path d="M90.2168 115.016C90.1839 114.786 90.0294 115.367 90.0137 115.407C89.5672 116.555 88.9708 117.653 88.5192 118.802" stroke="black" stroke-width="0.516692" stroke-linecap="round"/>
<path d="M91.2614 116.322C91.2614 117.047 90.6 118.029 90.3473 118.672" stroke="black" stroke-width="0.516692" stroke-linecap="round"/>
<path d="M92.9591 117.236C92.8785 118.042 92.387 118.924 92.1756 119.717" stroke="black" stroke-width="0.516692" stroke-linecap="round"/>
<path d="M75.5914 55.4697C75.2508 55.8954 75.1719 56.791 75.04 57.2689C74.5939 58.886 74.1177 60.4501 74.0244 62.1295" stroke="black" stroke-width="0.516692" stroke-linecap="round"/>
<path d="M76.6361 57.2979C76.2406 57.3967 75.8158 59.6933 75.7655 59.8587C75.3776 61.1345 74.976 62.4118 74.7716 63.7327C74.7071 64.1494 74.6246 64.5052 74.8079 64.8717" stroke="black" stroke-width="0.516692" stroke-linecap="round"/>
<path d="M77.8113 59.3872C77.8113 61.2472 76.7219 63.0323 76.5055 64.8717" stroke="black" stroke-width="0.516692" stroke-linecap="round"/>
<path d="M79.5089 60.6929C79.3464 60.9163 79.3559 61.2237 79.284 61.4836C79.0793 62.2238 78.883 62.9475 78.7254 63.6963" stroke="black" stroke-width="0.516692" stroke-linecap="round"/>
<path d="M82.1206 60.4316C81.8436 60.5009 81.6631 61.7782 81.5983 61.9986" stroke="black" stroke-width="0.516692" stroke-linecap="round"/>
<path d="M98.313 56.9058C98.2672 57.2723 97.9212 57.4765 97.9212 57.9504" stroke="black" stroke-width="0.516692" stroke-linecap="round"/>
<path d="M100.402 55.8613C100.01 55.9104 99.782 58.4348 99.7493 58.6036" stroke="black" stroke-width="0.516692" stroke-linecap="round"/>
<path d="M102.23 55.9922C102.138 56.9147 101.493 58.0153 101.186 58.865" stroke="black" stroke-width="0.516692" stroke-linecap="round"/>
<path d="M74.4162 71.7925C74.309 73.8299 74.2853 75.7727 74.5468 77.7993" stroke="black" stroke-width="0.516692" stroke-linecap="round"/>
<path d="M75.9832 70.8784C75.6405 71.3925 75.754 72.5696 75.7148 73.1056C75.5785 74.968 75.6185 76.6264 75.8526 78.4523" stroke="black" stroke-width="0.516692" stroke-linecap="round"/>
<path d="M78.0725 70.4868C78.0725 71.7945 77.9115 73.1023 77.8113 74.4043" stroke="black" stroke-width="0.516692" stroke-linecap="round"/>
<path d="M79.9007 68.9199C79.9007 69.9223 79.8214 70.9228 79.7701 71.9233" stroke="black" stroke-width="0.516692" stroke-linecap="round"/>
<path d="M105.756 65.394C105.58 65.768 105.483 66.175 105.365 66.5693" stroke="black" stroke-width="0.516692" stroke-linecap="round"/>
<path d="M107.323 65.2632C107.24 65.933 106.926 66.6654 106.801 67.3525" stroke="black" stroke-width="0.516692" stroke-linecap="round"/>
<path d="M109.021 65.5244C108.997 65.7603 108.86 65.9725 108.796 66.1991C108.434 67.4779 108.223 68.7914 107.976 70.0948" stroke="black" stroke-width="0.516692" stroke-linecap="round"/>
<path d="M110.457 67.7446C109.811 69.2805 109.791 71.2079 109.543 72.8374" stroke="black" stroke-width="0.516692" stroke-linecap="round"/>
<path d="M80.2924 72.0537C80.0989 72.0779 80.0723 72.4218 80.0313 72.576C79.6013 74.1934 79.4055 75.8906 79.1172 77.5382" stroke="black" stroke-width="0.516692" stroke-linecap="round"/>
<path d="M82.6429 70.3564C82.3672 70.3909 82.2626 71.2985 82.2367 71.4011C81.3629 74.868 80.5037 78.3043 80.0313 81.8478" stroke="black" stroke-width="0.516692" stroke-linecap="round"/>
<path d="M84.9934 68.6587C84.965 68.4882 84.8642 68.9838 84.8628 68.9925C84.4752 71.4149 83.9072 73.8283 83.4264 76.2326" stroke="black" stroke-width="0.516692" stroke-linecap="round"/>
<path d="M82.2513 81.7168V82.6309" stroke="black" stroke-width="0.516692" stroke-linecap="round"/>
<path d="M87.0828 66.9609C86.3627 68.6712 86.1913 70.7678 85.7769 72.576" stroke="black" stroke-width="0.516692" stroke-linecap="round"/>
<path d="M88.6498 66.8306C88.6498 67.0453 88.5836 67.206 88.5192 67.4109C88.0911 68.773 87.8447 70.1343 87.6051 71.5316" stroke="black" stroke-width="0.516692" stroke-linecap="round"/>
<path d="M90.7391 66.0469C90.6845 67.0837 90.2725 68.1562 90.0861 69.1809" stroke="black" stroke-width="0.516692" stroke-linecap="round"/>
<path d="M93.0897 65.394C93.0103 66.1085 92.6735 66.8707 92.5673 67.614" stroke="black" stroke-width="0.516692" stroke-linecap="round"/>
<path d="M105.234 65.9165C104.828 65.9672 104.631 68.403 104.581 68.6588" stroke="black" stroke-width="0.516692" stroke-linecap="round"/>
<path d="M106.279 66.8306C106.264 67.0777 106.17 67.3138 106.119 67.556C105.813 69.0116 105.588 70.4556 105.365 71.9233" stroke="black" stroke-width="0.516692" stroke-linecap="round"/>
<path d="M107.454 69.0503C107.454 69.3102 107.414 69.5277 107.345 69.783C106.987 71.1102 106.753 72.4015 106.54 73.7513" stroke="black" stroke-width="0.516692" stroke-linecap="round"/>
<path d="M122.21 92.8164C121.851 93.2205 121.812 93.8859 121.688 94.3834" stroke="black" stroke-width="0.516692" stroke-linecap="round"/>
<path d="M123.646 92.686C123.578 93.3039 123.263 94.0334 123.124 94.6448" stroke="black" stroke-width="0.516692" stroke-linecap="round"/>
<path d="M124.952 93.6001C124.847 94.4359 124.506 95.3831 124.299 96.2118" stroke="black" stroke-width="0.516692" stroke-linecap="round"/>
<path d="M126.127 94.7754C126.015 95.8997 125.575 97.0618 125.344 98.1706" stroke="black" stroke-width="0.516692" stroke-linecap="round"/>
<path d="M127.172 95.8198C127.172 96.514 126.926 97.2371 126.78 97.9092" stroke="black" stroke-width="0.516692" stroke-linecap="round"/>
<path d="M125.997 99.3457C125.898 100.23 125.161 101.264 124.821 102.088" stroke="black" stroke-width="0.516692" stroke-linecap="round"/>
<path d="M126.78 100.129C126.687 101.058 126.057 102.015 125.736 102.872" stroke="black" stroke-width="0.516692" stroke-linecap="round"/>
<path d="M127.694 100.913C127.609 101.767 127.061 102.735 126.78 103.525" stroke="black" stroke-width="0.516692" stroke-linecap="round"/>
<path d="M73.6327 151.971C73.3769 152.028 73.3158 152.42 73.2555 152.617C72.7618 154.227 72.2948 155.845 71.8045 157.456" stroke="black" stroke-width="0.516692" stroke-linecap="round"/>
<path d="M75.3303 153.016C75.3156 153.134 75.2174 153.159 75.1998 153.277C75.0197 154.477 74.4814 155.768 74.1551 156.933" stroke="black" stroke-width="0.516692" stroke-linecap="round"/>
<path d="M77.1584 153.93C77.0432 155.082 76.4932 156.311 76.2443 157.455" stroke="black" stroke-width="0.516692" stroke-linecap="round"/>
<path d="M77.4196 144.658C76.9381 144.819 76.6245 146.769 76.5055 147.139" stroke="black" stroke-width="0.516692" stroke-linecap="round"/>
<path d="M79.1171 144.528C78.996 144.676 78.9261 144.833 78.885 145.021C78.6456 146.115 78.4315 147.218 78.203 148.315" stroke="black" stroke-width="0.516692" stroke-linecap="round"/>
<path d="M80.0312 151.84C79.903 152.867 79.4739 154.075 79.2477 155.105" stroke="black" stroke-width="0.516692" stroke-linecap="round"/>
<path d="M77.0279 124.94C76.864 124.96 76.9177 125.109 76.8248 125.216C76.1537 125.983 75.8441 127.154 75.4609 128.074" stroke="black" stroke-width="0.516692" stroke-linecap="round"/>
<path d="M77.6808 126.768C77.4893 126.792 77.0786 127.555 76.9844 127.682C75.835 129.228 74.9258 130.893 74.1551 132.644" stroke="black" stroke-width="0.516692" stroke-linecap="round"/>
<path d="M94.8543 82.6732C91.5475 82.3632 90.9792 87.4526 91.1083 90.0361L93.1751 91.457L92.1417 93.9113C91.7973 94.9446 91.6509 97.2698 93.821 98.3031C96.5336 99.5949 98.9879 83.0607 94.8543 82.6732Z" fill="black"/>
<path d="M106.609 83.0605C103.458 82.0102 103.267 87.7243 103.396 90.3078L105.463 91.7286L104.43 94.1829C104.085 95.2163 103.56 97.9154 105.963 97.9154C109.176 97.9154 108.547 83.7063 106.609 83.0605Z" fill="black"/>
</mask>
<g mask="url(#mask1_60_218)">
<rect x="43.8484" y="44.4683" width="92.9141" height="113.508" fill="#020F13"/>
</g>
<path d="M55.5788 158.453L52.9069 160.822H45.6709L42.97 158.453V154.799H47.1585V156.633H51.3903V151.578H45.6709L42.97 149.195V140.515L45.6709 138.132H52.9069L55.5788 140.5V144.024H51.3903V142.32H47.1585V147.375H52.9069L55.5788 149.758V158.453ZM74.048 158.453L71.3039 160.822H63.8368L61.1648 158.453V140.515L63.8368 138.132H71.3039L74.048 140.529V144.024H69.8596V142.32H65.3533V156.633H69.8596V154.799H74.048V158.453ZM92.7483 160.822H88.5599V151.578H83.8081V160.822H79.6196V138.132H83.8081V147.375H88.5599V138.132H92.7483V160.822ZM111.506 158.453L108.806 160.822H101.006L98.3343 158.453V140.515L101.006 138.132H108.806L111.506 140.515V158.453ZM107.303 156.633V142.32H102.523V156.633H107.303ZM130.25 158.453L127.549 160.822H119.75L117.078 158.453V140.515L119.75 138.132H127.549L130.25 140.515V158.453ZM126.047 156.633V142.32H121.266V156.633H126.047ZM146.206 160.822H135.822V138.132H140.025V156.633H146.206V160.822Z" fill="#020F13"/>
<path d="M32.348 55.8223L35.4908 53.2164L32.4301 49.5252L29.2873 52.1312L32.348 55.8223ZM37.9535 62.5825L41.0963 59.9765L38.0356 56.2853L34.8928 58.8913L37.9535 62.5825ZM45.2671 58.7606L44.7397 62.1167L37.4311 68.1769L23.6929 51.6088L31.0014 45.5486L34.4059 45.6621L38.6297 50.756L38.6379 53.1697L41.0346 53.6562L45.2671 58.7606Z" fill="#020F13"/>
<path d="M60.3006 52.7165L57.3731 48.7996L53.6128 50.5903L54.8086 55.3319L51.1473 57.0754L45.7773 35.7937L50.824 33.3904L63.9619 50.9729L60.3006 52.7165ZM54.9474 45.5541L51.0162 40.2943L52.622 46.6615L54.9474 45.5541Z" fill="#020F13"/>
<path d="M81.7811 46.543L77.5962 47.344L72.6243 39.3684L71.4671 39.5898L73.1154 48.2017L69.1997 48.9511L65.1536 27.8118L74.5324 26.0167L77.4467 27.7604L78.9328 35.5245L76.745 38.5238L81.7811 46.543ZM70.7176 35.6742L74.7679 34.8989L73.8639 30.1759L69.8136 30.9511L70.7176 35.6742Z" fill="#020F13"/>
<path d="M92.0649 33.5705L96.1426 33.7714L96.3785 28.9821L92.3008 28.7813L92.0649 33.5705ZM91.6329 42.3418L95.7106 42.5426L95.9465 37.7533L91.8688 37.5525L91.6329 42.3418ZM99.6076 44.4629L96.9519 46.5816L87.4692 46.1146L88.528 24.6176L98.0107 25.0846L100.445 27.4678L100.119 34.077L98.4949 35.8625L99.9338 37.84L99.6076 44.4629Z" fill="#020F13"/>
<path d="M115.304 49.8695L105.316 47.0773L111.11 26.3489L121.019 29.119L119.95 32.9454L113.867 31.245L112.576 35.863L117.814 37.3274L116.741 41.1669L111.503 39.7026L110.212 44.3206L116.373 46.0431L115.304 49.8695Z" fill="#020F13"/>
<path d="M132.054 57.7693L128.322 55.7144L129.586 46.4014L128.554 45.8331L124.325 53.5141L120.833 51.5913L131.213 32.7369L139.578 37.3423L140.709 40.5449L136.896 47.4698L133.297 48.3818L132.054 57.7693ZM130.477 42.3407L134.09 44.3295L136.409 40.1169L132.796 38.1281L130.477 42.3407Z" fill="#020F13"/>
<path d="M148.057 39.5629L151.711 42.0719L145.122 50.4783L142.578 48.7315L148.057 39.5629Z" fill="#020F13"/>
<path d="M150.921 71.3877L147.548 71.0859L142.837 66.0933L142.714 62.6879L145.235 60.3093L147.961 63.1993L146.696 64.3933L149.45 67.3131L152.938 64.0226L149.215 60.0763L149.102 56.6615L155.091 51.0113L158.493 51.3235L163.203 56.3162L163.308 59.7016L160.877 61.9956L158.15 59.1056L159.326 57.9962L156.571 55.0764L153.084 58.3669L156.825 62.3331L156.92 65.728L150.921 71.3877Z" fill="#020F13"/>
</mask>
<g mask="url(#mask0_60_218)">
<rect y="0.333496" width="185" height="188" fill="#D9D9D9"/>
</g>
</svg>
