<svg width="166" height="162" viewBox="0 0 166 162" fill="none" xmlns="http://www.w3.org/2000/svg">
<path d="M0.98773 74.963C0.98773 33.7691 34.382 0.374815 75.5759 0.374815H90.9106C132.105 0.374815 165.499 33.7691 165.499 74.963V161.015H0.98773V74.963Z" stroke="#020F13" stroke-width="0.74963"/>
<path d="M8.39202 75.0122C8.39202 37.3746 38.9034 6.86321 76.541 6.86321H90.7717C128.409 6.86321 158.921 37.3746 158.921 75.0122V154.527H8.39202V75.0122Z" stroke="#020F13" stroke-width="0.684915"/>
<mask id="mask0_60_237" style="mask-type:alpha" maskUnits="userSpaceOnUse" x="53" y="42" width="67" height="102">
<path d="M55.0672 134.316V133.856" stroke="black" stroke-width="0.693484" stroke-linecap="round"/>
<path d="M68.4009 58.5494C68.3791 58.3745 68.0373 58.2747 67.8828 58.1656C67.1556 57.6523 66.6164 56.0273 66.5011 55.1912C66.0102 51.6321 67.6536 48.3076 70.3103 45.8553C73.2426 43.1485 76.9384 43.351 80.6633 43.351C82.1803 43.351 83.4636 43.7742 84.8947 44.2145C85.5249 44.4084 86.0662 44.7702 86.7082 44.9437C87.3771 45.1245 88.3465 45.4647 88.8575 45.9416C90.5384 47.5105 92.275 48.9678 93.2328 51.1229C93.3475 51.381 93.2712 51.7941 93.2712 52.0728C93.2712 52.5331 93.2694 52.3883 92.9258 52.1592" stroke="black" stroke-width="1.15581" stroke-linecap="round"/>
<path d="M70.9918 68.7394C70.1208 68.6305 69.8758 67.4195 69.9459 66.7532C70.1042 65.2498 71.358 64.1733 72.3735 63.2127C73.6839 61.9731 75.7834 60.6276 77.478 60.0175C79.2464 59.3809 81.059 58.3868 82.8704 57.993C84.9417 57.5427 86.8815 56.9951 89.0304 56.9951C91.093 56.9951 92.5196 57.6084 94.3077 58.5495C95.5414 59.1989 96.2414 59.5792 97.1574 60.6988C97.5884 61.2256 97.5892 63.3752 97.5892 62.6946" stroke="black" stroke-width="1.15581" stroke-linecap="round"/>
<path d="M70.8192 69.4302C70.7367 70.0909 69.2333 69.9735 68.8331 69.9387C67.5777 69.8296 66.941 68.3116 66.5974 67.2809C65.8082 64.9133 65.2637 62.2244 66.8853 60.1039C67.6407 59.116 68.3827 58.2463 69.4567 57.59C70.9146 56.6991 72.2127 55.5919 73.8321 55.0089C74.5477 54.7513 75.2639 54.5537 76.0101 54.4044C76.6666 54.2731 77.1688 53.8831 77.8044 53.7136C79.2186 53.3365 80.5737 52.7073 81.959 52.2455C86.041 50.8849 91.695 51.1008 94.9123 54.3181C95.377 54.7828 96.0664 54.9796 96.553 55.4407C98.0727 56.8804 99.1592 58.6991 99.9689 60.622C100.3 61.4086 99.7051 62.5389 99.4507 63.251C99.2776 63.7359 98.9805 64.0667 98.6256 64.4216C98.3963 64.6508 97.9621 65.085 98.4529 64.5943" stroke="black" stroke-width="1.15581" stroke-linecap="round"/>
<path d="M70.4736 67.3577C70.2687 67.3833 71.2702 69.8004 71.3372 70.1019C71.5616 71.1118 71.8553 72.3675 71.8553 73.4122C71.8553 74.767 72.056 76.1865 72.1911 77.538C72.3615 79.242 71.8553 81.1076 71.8553 82.8249C71.8553 86.8997 71.3372 90.9456 71.3372 95.0297C71.3372 97.0283 71.0719 98.9277 70.7807 100.902C70.6559 101.748 70.4931 102.56 70.4736 103.416C70.4616 103.944 70.122 104.149 70.6463 103.8" stroke="black" stroke-width="1.15581" stroke-linecap="round"/>
<path d="M96.8984 63.2127C98.0649 63.0669 98.2801 75.1483 98.2801 76.4155C98.2801 81.4535 97.4166 86.5426 97.4166 91.5372" stroke="black" stroke-width="1.15581" stroke-linecap="round"/>
<path d="M96.5529 94.6459C96.3349 94.9261 96.5529 96.0805 96.5529 96.4018C96.5529 98.0427 96.5367 99.8255 96.2842 101.449C96.1009 102.627 95.9403 103.804 95.6893 104.97C95.6225 105.281 95.5166 106.411 95.5166 106.39" stroke="black" stroke-width="1.15581" stroke-linecap="round"/>
<path d="M90.8535 91.5371C91.2193 90.3939 91.6033 89.6373 92.9644 89.6373C94.086 89.6373 94.8738 90.0009 95.651 90.8079C96.1737 91.3508 96.6324 92.1621 97.5508 91.8442C97.831 91.7472 98.8749 90.648 98.28 90.8463" stroke="black" stroke-width="1.15581" stroke-linecap="round"/>
<path d="M90.8536 91.8825C90.476 91.8825 91.5057 94.3021 91.7172 94.6075C92.4997 95.7378 93.9236 94.8408 94.8259 94.4347C95.5186 94.1231 96.1632 94.0306 96.7257 93.4369C97.1221 93.0185 97.5007 92.4673 97.762 91.9592C98.0087 91.4796 98.165 91.134 97.5893 91.7098" stroke="black" stroke-width="1.15581" stroke-linecap="round"/>
<path d="M90.8536 91.1916C90.8536 90.1698 90.7803 89.9691 89.9901 89.2918C88.9591 88.4081 87.6878 88.8578 86.7086 89.5988C85.6507 90.3994 85.1572 91.6113 83.9836 92.3238C83.2233 92.7855 81.9987 91.3036 82.2181 92.4006" stroke="black" stroke-width="1.15581" stroke-linecap="round"/>
<path d="M82.3907 92.4007C81.9841 92.3499 82.3466 93.3758 82.5826 93.696C83.0749 94.3641 84.1351 95.2403 84.9429 95.4711C85.8669 95.7351 87.4077 95.2453 88.1765 94.7131C89.0095 94.1364 90.3353 92.5734 90.3353 92.5734" stroke="black" stroke-width="1.15581" stroke-linecap="round"/>
<path d="M88.9536 87.3921C89.5994 86.818 90.0635 86.7541 90.9493 86.778C92.5567 86.8215 91.6266 88.6945 91.1988 89.4646" stroke="black" stroke-width="1.15581" stroke-linecap="round"/>
<path d="M82.9088 87.7374C82.8183 88.4613 81.512 87.0887 81.1242 86.4709C80.0633 84.7807 79.6496 82.2133 79.6273 80.2341C79.5998 77.7815 79.7358 75.6182 81.2393 73.6136C82.1507 72.3984 83.6826 72.1412 84.895 72.9707C86.1405 73.8229 86.4857 75.6142 86.9675 76.9526C87.6471 78.8405 87.8266 81.1432 87.3129 83.0838C86.944 84.4774 86.333 86.5289 85.2212 87.5551C84.6751 88.0592 83.3218 87.4295 83.0815 87.9101" stroke="black" stroke-width="1.15581" stroke-linecap="round"/>
<path d="M93.0986 86.3558C91.8252 86.3558 91.7158 83.5532 91.5442 82.6521C91.2275 80.9896 91.1988 79.4216 91.1988 77.7299C91.1988 76.3372 91.5621 74.8147 92.5804 73.8247C93.6925 72.7436 95.1546 73.3931 95.8236 74.6115C96.5552 75.9442 97.1849 77.4419 97.4931 78.9388C97.8622 80.7315 97.589 82.4629 97.589 84.2737C97.589 85.4007 96.7671 87.1594 95.4781 87.2193C94.6877 87.2561 94.4967 87.0995 93.7894 86.9123C93.4738 86.8287 93.0774 86.7012 92.7532 86.7012" stroke="black" stroke-width="1.15581" stroke-linecap="round"/>
<path d="M94.3078 74.0934C94.1752 75.154 93.5724 76.3521 93.4538 77.5381C93.3455 78.6208 93.3116 79.7192 93.1372 80.7908C93.0636 81.2426 94.1077 81.6643 94.4613 81.9422C95.6067 82.8421 94.4864 83.0638 94.0007 83.9379C93.6847 84.5067 93.9624 84.8748 93.9624 85.4923C93.9624 86.1883 94.3984 87.0757 93.7896 86.0104" stroke="black" stroke-width="1.15581" stroke-linecap="round"/>
<path d="M84.4632 73.7479C84.444 73.9015 83.9101 74.0515 83.734 74.2277C83.0473 74.9143 82.6492 76.0848 82.5538 77.039C82.4278 78.299 82.1143 79.4021 82.2275 80.7043C82.2777 81.2807 83.5252 81.1344 83.9067 81.5583C84.1862 81.8689 82.8264 83.5279 82.9184 84.0338C83.0493 84.7541 83.0534 85.4804 83.2542 86.1831C83.3316 86.454 83.7833 87.2248 83.4269 87.0466" stroke="black" stroke-width="1.15581" stroke-linecap="round"/>
<path d="M78.2457 74.4388C77.9507 74.4756 77.9002 74.9476 77.9002 74.3524C77.9002 73.553 78.4939 72.5336 78.9557 71.9249C79.8464 70.7507 80.9715 70.3095 82.3523 69.9483C82.6891 69.8602 84.9729 69.7482 83.7724 69.9483" stroke="black" stroke-width="1.15581" stroke-linecap="round"/>
<path d="M90.3353 72.8844C90.1986 72.8996 89.9484 73.252 89.9995 73.1243C90.2372 72.5298 90.5541 71.9648 90.9781 71.4835C92.2162 70.0781 93.8784 69.4956 95.6893 69.9483" stroke="black" stroke-width="1.15581" stroke-linecap="round"/>
<path d="M85.1701 96.6456C85.2228 96.1353 85.3754 95.7092 85.1701 96.6456V96.6456Z" fill="black"/>
<path d="M87.572 95.3367C89.2573 95.3367 89.8925 96.7386 91.5059 97.0255C92.1622 97.1421 92.6319 96.7215 93.0987 97.4476C93.699 98.3814 93.3484 99.3808 92.7149 100.173C90.7935 102.574 86.6562 100.806 85.5379 98.4455C85.275 97.8906 85.1541 97.5595 85.1541 96.9295C85.1541 96.3272 85.4244 95.5019 85.1541 96.7184" stroke="black" stroke-width="1.15581" stroke-linecap="round"/>
<path d="M85.8449 97.7547C85.1566 97.8407 86.2606 97.5367 86.4974 97.3709C87.1144 96.939 88.3855 98.3729 88.0901 98.9637" stroke="black" stroke-width="1.15581" stroke-linecap="round"/>
<path d="M87.7449 98.2728C87.419 98.2728 88.0826 98.0595 88.1671 98.0233C88.3805 97.9318 89.2102 98.2889 89.376 98.4455C89.7658 98.8136 90.0563 99.2184 90.1724 99.7408C90.2185 99.9481 90.3355 100.617 90.3355 100.518" stroke="black" stroke-width="1.15581" stroke-linecap="round"/>
<path d="M84.4635 102.418C84.8442 102.846 85.0189 103.293 85.5957 103.54C86.2929 103.839 86.9909 103.778 87.5723 103.972" stroke="black" stroke-width="1.15581" stroke-linecap="round"/>
<path d="M81.8725 105.699C82.0722 107.297 81.1939 109.346 81.6997 111.053C82.0004 112.068 81.766 111.744 82.4002 111.149C83.0231 110.565 83.7383 109.653 84.4727 109.24C85.9521 108.408 87.1678 107.782 88.8576 107.426C89.4041 107.311 89.953 107.112 90.508 107.081C90.949 107.057 91.1099 107.051 90.6807 106.908" stroke="black" stroke-width="1.15581" stroke-linecap="round"/>
<path d="M90.8535 107.254C91.0536 108.854 91.0262 113.703 91.0262 112.09" stroke="black" stroke-width="1.15581" stroke-linecap="round"/>
<path d="M81.8726 106.218C81.9026 106.007 83.9385 107.289 84.0794 107.388C85.0539 108.075 85.9107 108.562 86.9771 109.115C87.8428 109.564 88.705 109.919 89.5678 110.363C90.0185 110.594 90.6808 111.906 90.6808 111.399" stroke="black" stroke-width="1.15581" stroke-linecap="round"/>
<path d="M81.4509 108.542C81.4749 108.597 81.4971 108.651 81.5177 108.703C81.5259 108.723 81.5168 108.626 81.4509 108.542Z" fill="black"/>
<path d="M68.574 104.836C69.3091 104.754 70.0235 104.398 70.7905 104.318C71.6152 104.231 72.406 104.302 73.2372 104.318C75.3091 104.358 77.1569 105.105 78.9366 106.045C79.9282 106.568 80.3942 107.253 81.0859 107.945C81.2745 108.133 81.4168 108.45 81.5177 108.703C81.5288 108.731 81.5078 108.539 81.3546 108.463" stroke="black" stroke-width="1.15581" stroke-linecap="round"/>
<path d="M83.0814 111.053C83.0814 110.869 83.3146 111.439 83.3884 111.572C83.6052 111.962 83.8586 112.205 84.0313 112.685C84.4781 113.926 85.1743 115.156 85.461 116.446C85.7747 117.858 86.1415 119.223 86.4492 120.639C86.5202 120.965 87.0497 122.446 86.7083 121.934" stroke="black" stroke-width="1.15581" stroke-linecap="round"/>
<path d="M68.401 105.354C69.3001 105.354 70.4144 106.389 71.078 106.908C72.4666 107.995 73.7135 109.469 74.3595 111.121C74.5266 111.547 74.6533 112.027 74.8777 112.425C75.2081 113.013 75.4179 112.337 75.6932 112.051C76.001 111.732 78.1384 110.518 78.0344 110.919C77.7572 111.988 77.5547 113.057 77.5547 114.162C77.5547 114.849 77.5522 114.691 78.2263 115.026C79.9603 115.886 81.5496 117.062 83.1582 118.134C83.9606 118.669 87.6767 121.812 86.3629 122.798" stroke="black" stroke-width="1.15581" stroke-linecap="round"/>
<path d="M95.6894 106.045C95.6639 106.249 95.393 106.488 95.2672 106.649C94.7887 107.264 94.4358 108.112 94.0582 108.799C93.2502 110.268 92.4722 111.6 91.5444 112.992C90.4114 114.691 89.644 116.707 89.0497 118.653C88.7877 119.51 88.4053 120.372 88.2245 121.243C88.1681 121.515 87.5631 122.802 87.9174 122.625" stroke="black" stroke-width="1.15581" stroke-linecap="round"/>
<path d="M87.3994 122.97C87.3994 122.403 87.7973 121.935 88.1287 121.474C88.9279 120.36 89.7261 119.079 90.6617 118.077C91.0986 117.609 91.3933 117.198 92.0242 116.964C92.706 116.711 92.7199 116.78 92.6191 116.024C92.4954 115.096 92.7743 114.527 92.9166 113.673C92.9321 113.58 93.7227 114.614 93.8761 114.853C94.3404 115.575 96.3977 112.983 97.0712 112.646C97.4232 112.47 97.8387 112.045 97.4166 112.608" stroke="black" stroke-width="1.15581" stroke-linecap="round"/>
<path d="M95.8621 106.217C95.8621 106.023 96.2818 106.459 96.3803 106.563C96.8685 107.08 97.312 108.017 97.5892 108.674C97.9115 109.437 98.022 110.077 98.1457 110.881C98.1939 111.194 98.1771 112.227 98.4528 112.09" stroke="black" stroke-width="1.15581" stroke-linecap="round"/>
<path d="M97.4165 113.644C97.4165 112.373 96.9301 116.142 96.5913 117.367C96.3437 118.262 96.2462 119.203 96.0348 120.111C95.812 121.068 95.4862 122.096 95.3439 123.057C95.0719 124.893 94.8968 127.066 95.0753 128.91C95.0906 129.068 95.1761 131.093 94.8258 130.742" stroke="black" stroke-width="1.15581" stroke-linecap="round"/>
<path d="M68.0578 111.556C68.074 111.436 68.1053 111.294 68.0654 111.514C68.0629 111.528 68.0603 111.542 68.0578 111.556Z" fill="black"/>
<path d="M68.0558 111.571C68.0712 111.449 68.1071 111.285 68.0654 111.514C67.8956 112.448 67.8231 113.414 67.672 114.354C67.268 116.868 66.424 119.208 66.1176 121.761C65.843 124.05 65.8106 130.975 65.8106 128.67" stroke="black" stroke-width="1.15581" stroke-linecap="round"/>
<path d="M65.8106 129.879C65.381 129.497 65.917 129.706 66.3383 129.706C68.0551 129.706 70.0376 128.862 71.6827 128.363C73.2133 127.898 74.746 127.206 76.3651 127.125C78.0102 127.043 79.6229 127.27 81.2585 127.288C84.7783 127.327 87.6989 128.046 90.9879 129.226C92.1339 129.638 93.068 130.429 94.1254 131.001C94.3723 131.135 95.3627 132.008 95.1713 131.433" stroke="black" stroke-width="1.15581" stroke-linecap="round"/>
<path d="M62.5541 118.328C62.5379 118.45 62.5291 118.571 62.5291 118.691C62.5291 119.368 62.589 118.767 62.5541 118.328Z" fill="black"/>
<path d="M67.7104 111.744C65.2293 111.744 64.1452 114.477 63.2199 116.407C62.8956 117.084 62.5291 117.923 62.5291 118.691C62.5291 119.477 62.6099 118.539 62.5291 118.134" stroke="black" stroke-width="1.15581" stroke-linecap="round"/>
<path d="M57.866 113.989C58.5328 113.923 58.9585 113.29 59.689 113.279C60.5634 113.267 61.5453 113.935 61.9342 114.68C62.3254 115.43 63.272 117.91 62.5291 118.653" stroke="black" stroke-width="1.15581" stroke-linecap="round"/>
<path d="M57.3477 114.335C57.6452 111.657 59.3189 108.824 61.3584 107.081C62.6461 105.98 64.3445 105.181 65.9736 104.749C66.6886 104.56 67.3781 104.292 68.1133 104.183C69.0375 104.047 68.7483 104.242 68.2284 104.836" stroke="black" stroke-width="1.15581" stroke-linecap="round"/>
<path d="M57.1749 114.68C57.1749 115.193 58.1494 116.173 57.6931 115.717" stroke="black" stroke-width="1.15581" stroke-linecap="round"/>
<path d="M60.4564 118.48C60.5272 119.046 62.5716 118.847 62.1835 118.653" stroke="black" stroke-width="1.15581" stroke-linecap="round"/>
<path d="M96.8984 116.235C96.9966 117.02 99.6917 116.459 100.094 116.407C102.151 116.142 103.965 115.134 105.534 113.826C106.951 112.646 108.324 111.545 109.641 110.228C110.187 109.681 110.345 109.317 110.638 108.645C110.871 108.113 110.85 108.124 110.543 108.635" stroke="black" stroke-width="1.15581" stroke-linecap="round"/>
<path d="M98.2801 108.808C98.2613 108.811 98.7984 108.965 99.1053 108.846C100.129 108.45 101.58 107.812 102.416 107.081C102.989 106.58 103.463 106.072 103.98 105.527C104.295 105.194 104.437 104.769 104.507 105.44C104.666 106.949 106.957 108.255 108.297 108.29C108.909 108.306 109.558 108.338 110.111 108.031C110.586 107.767 110.484 107.735 110.197 108.117" stroke="black" stroke-width="1.15581" stroke-linecap="round"/>
<path d="M103.979 105.699C104.386 105.649 104.702 105.068 105.112 104.932C105.381 104.842 107.103 105.009 106.57 105.009" stroke="black" stroke-width="1.15581" stroke-linecap="round"/>
<path d="M59.4202 113.817C58.7741 113.897 57.8861 116.662 57.6547 117.213C57.1124 118.507 56.8514 119.976 56.8295 121.378C56.8238 121.746 57.0023 123.964 57.0023 122.625" stroke="black" stroke-width="1.15581" stroke-linecap="round"/>
<path d="M61.4928 115.717C61.2873 115.768 61.1793 116.134 61.1378 116.321C60.9414 117.205 60.5011 118.193 60.2071 119.075C59.9751 119.771 60.1209 120.581 60.2455 121.282C60.2702 121.421 60.3788 122.608 60.6293 122.107" stroke="black" stroke-width="1.15581" stroke-linecap="round"/>
<path d="M105.707 107.081C105.782 106.477 106.944 105.547 107.232 105.028C107.852 103.913 108.283 102.707 108.815 101.554C109.266 100.579 109.775 99.3693 109.842 98.292C109.874 97.7846 109.852 95.5246 109.852 97.2365" stroke="black" stroke-width="1.15581" stroke-linecap="round"/>
<path d="M109.679 107.426C109.425 107.716 110.052 106.949 110.158 106.736C110.895 105.263 111.418 103.807 111.914 102.236C112.29 101.045 112.525 99.5905 112.624 98.3496C112.671 97.767 112.787 96.1856 112.787 97.7547" stroke="black" stroke-width="1.15581" stroke-linecap="round"/>
<path d="M108.643 93.4369C108.643 93.2148 108.324 93.8513 108.307 93.9742C108.204 94.6962 107.999 96.2501 109.074 96.3634C109.988 96.4595 112.728 96.4956 113.382 95.6629C113.693 95.2677 113.753 94.5627 113.613 94.0894C113.439 93.5027 113.625 93.7823 114.265 93.7823C114.895 93.7823 115.319 93.4171 115.685 92.9188C115.821 92.7341 116.292 91.4619 115.896 92.0552" stroke="black" stroke-width="1.15581" stroke-linecap="round"/>
<path d="M111.235 88.6043C111.208 88.6004 111.182 88.5961 111.157 88.5915C110.878 88.5409 110.992 88.3877 111.235 88.6043Z" fill="black"/>
<path d="M108.643 93.437C108.149 93.3822 107.545 93.0511 107.108 92.8325C106.247 92.4025 106.905 90.0966 106.916 89.3687C106.95 86.9278 106.533 84.1298 109.852 84.1298C111.443 84.1298 115.416 88.2294 112.596 88.5819C112.163 88.636 111.592 88.6707 111.157 88.5915C110.864 88.5383 111.004 88.3721 111.272 88.6395C112.307 89.6743 112.112 90.7058 111.406 91.8826" stroke="black" stroke-width="1.15581" stroke-linecap="round"/>
<path d="M108.643 83.7651C108.38 83.9954 108.691 83.0258 108.758 82.844C109.392 81.114 109.957 79.3677 110.792 77.7203C111.255 76.8073 112.255 75.4032 113.287 76.6073C113.611 76.9859 113.749 77.5464 113.824 78.0273C114.13 79.9983 113.937 82.1216 113.997 84.1106" stroke="black" stroke-width="1.15581" stroke-linecap="round"/>
<path d="M113.824 82.5563C116.428 82.8456 117.596 85.9267 116.376 88.1214C116.137 88.5514 115.876 89.1703 115.282 89.0041C114.966 88.9154 114.363 88.6482 114.342 88.2557C114.319 87.8079 114.511 86.7013 115.033 86.7013" stroke="black" stroke-width="1.15581" stroke-linecap="round"/>
<path d="M116.933 87.7375C116.971 87.4327 118.105 87.8669 118.276 88.0446C119.274 89.0807 118.811 90.7736 117.979 91.7099C117.291 92.4835 116.408 92.7131 116.069 91.4412C115.868 90.6848 116.617 89.7504 116.587 89.81" stroke="black" stroke-width="1.15581" stroke-linecap="round"/>
<path d="M56.3114 126.425C56.2533 125.96 55.6657 125.802 55.6301 125.196C55.5566 123.946 56.8045 123.291 57.7698 122.711C58.4209 122.321 59.0999 121.761 59.8999 121.761C61.3038 121.761 61.9612 123.266 62.3562 124.352" stroke="black" stroke-width="1.15581" stroke-linecap="round"/>
<path d="M56.1388 126.597C56.1136 126.799 55.7028 126.88 55.5439 127.039C54.9188 127.664 54.2026 128.666 54.0663 129.552C53.9212 130.495 53.898 131.787 54.7571 132.431C55.045 132.647 55.7639 132.815 55.6207 132.815" stroke="black" stroke-width="1.15581" stroke-linecap="round"/>
<path d="M55.7933 130.051C55.69 130.98 55.4502 131.798 55.966 132.719C56.1128 132.981 57.1854 134.045 57.0022 133.678" stroke="black" stroke-width="1.15581" stroke-linecap="round"/>
<path d="M58.3841 130.742C58.2934 131.558 57.794 132.349 57.6165 133.16C57.4094 134.107 57.3974 135.208 57.0024 136.096C56.44 137.362 56.3382 141.88 58.5568 139.723C59.7146 138.598 59.2477 137.126 59.2477 135.712C59.2477 134.833 59.3037 134.027 59.4108 133.17C59.4358 132.97 59.5931 132.252 59.5931 132.815" stroke="black" stroke-width="1.15581" stroke-linecap="round"/>
<path d="M58.5568 129.361C58.5568 130.619 59.5644 131.769 60.7924 131.615C61.4267 131.536 61.845 131.454 62.3948 131.088C62.7165 130.873 63.7259 129.742 63.5654 130.224" stroke="black" stroke-width="1.15581" stroke-linecap="round"/>
<path d="M62.5291 126.597C61.3184 126.648 61.2147 129.139 60.9747 130.051" stroke="black" stroke-width="1.15581" stroke-linecap="round"/>
<path d="M62.0109 127.115C62.0109 128.131 64.0423 128.99 64.851 129.265C66.5694 129.848 68.2567 130.569 69.7924 131.529C71.1632 132.386 72.3921 133.661 73.4481 134.849C73.5349 134.947 72.4059 134.887 72.2008 134.887C71.72 134.887 71.327 135.422 71.0686 135.751C70.7789 136.12 70.0632 137.161 69.5238 137.037C68.631 136.831 67.9107 136.078 67.1154 135.665C66.5474 135.369 66.1194 134.929 65.7241 134.446C65.4029 134.053 64.8328 133.618 64.6399 133.16C64.3866 132.559 65.1766 131.968 64.9853 131.299C64.8422 130.798 64.5176 129.899 63.9874 129.706C63.3938 129.49 62.4897 129.243 62.0109 128.833C61.7312 128.593 61.1551 127.989 61.6655 128.67" stroke="black" stroke-width="1.15581" stroke-linecap="round"/>
<path d="M62.1835 124.007C62.1835 124.677 63.4917 125.247 64.045 125.35C64.7588 125.483 65.4038 125.27 65.6761 126.117C65.946 126.957 66.1347 127.846 65.561 128.631C65.3682 128.895 63.6278 129.507 64.2561 128.67" stroke="black" stroke-width="1.15581" stroke-linecap="round"/>
<path d="M59.7655 125.906C59.0343 125.998 59.0707 127.71 59.2474 128.152" stroke="black" stroke-width="1.15581" stroke-linecap="round"/>
<path d="M58.0386 126.079C57.4598 126.73 57.1929 127.499 57.0024 128.324" stroke="black" stroke-width="1.15581" stroke-linecap="round"/>
<path d="M64.9471 134.542C64.5992 134.585 64.9471 135.94 64.9471 136.144C64.9471 138.121 64.7419 140.006 64.6017 141.968" stroke="black" stroke-width="1.15581" stroke-linecap="round"/>
<path d="M83.0815 128.67C82.9498 128.95 82.9172 129.15 82.8992 129.457C82.8122 130.935 82.5588 132.393 82.218 133.832C81.6334 136.3 81.2014 138.958 81.6998 141.45" stroke="black" stroke-width="1.15581" stroke-linecap="round"/>
<path d="M82.0454 136.442C82.0306 136.56 84.2431 134.72 84.5977 134.024C85.2497 132.743 85.8593 131.19 86.2576 129.812C86.3847 129.372 86.5188 127.418 86.8813 128.324" stroke="black" stroke-width="1.15581" stroke-linecap="round"/>
<path d="M94.3077 131.606C94.3077 132.874 94.135 134.127 94.135 135.396C94.135 138.068 94.4957 140.736 94.9985 143.35" stroke="black" stroke-width="1.15581" stroke-linecap="round"/>
<path d="M76.8828 45.2241C76.8574 45.4269 76.0511 45.6891 75.8605 45.8606C75.2656 46.396 74.0297 48.4178 75.7062 48.4453C76.4141 48.4569 77.8324 47.9988 78.0979 47.2687C78.3276 46.6369 77.545 44.9091 76.8828 45.5713" stroke="black" stroke-width="1.15581" stroke-linecap="round"/>
<path d="M80.0074 45.3979C80.0074 45.908 79.9187 47.7857 80.181 47.6546" stroke="black" stroke-width="1.15581" stroke-linecap="round"/>
<path d="M80.3546 47.4811C79.9924 47.5263 80.1071 48.0508 80.3546 47.7415C80.4744 47.5917 81.7269 47.3919 81.9169 47.3846C82.742 47.3529 83.4605 47.4271 84.2797 47.4714C84.8247 47.5009 85.328 47.4389 85.8132 47.7318C85.9523 47.8158 86.6253 48.3916 86.4304 48.0018" stroke="black" stroke-width="1.15581" stroke-linecap="round"/>
<path d="M80.3546 45.745C81.278 44.9242 82.3822 45.4704 83.489 45.581C84.5246 45.6846 85.8272 46.804 86.0832 47.8281" stroke="black" stroke-width="1.15581" stroke-linecap="round"/>
<path d="M71.8485 69.701C71.5509 70.0359 71.7436 69.8684 71.8871 69.5274C72.3507 68.4263 72.586 67.2388 73.0734 66.1423C73.9113 64.257 75.0765 62.5689 76.5067 61.0792C77.0116 60.5532 77.5872 60.1107 78.1944 59.7097C78.4787 59.5219 78.9519 59.4519 78.6187 59.2853" stroke="black" stroke-width="1.15581" stroke-linecap="round"/>
<path d="M72.5429 76.9922C72.8298 76.6693 72.8538 76.187 73.0058 75.7963C73.559 74.3738 74.3717 73.1028 75.2432 71.8615C76.8249 69.6088 78.1528 67.0424 80.1039 65.0913C82.0726 63.1226 84.3351 61.1046 86.6812 59.5941C87.4897 59.0736 88.2877 58.3397 89.2176 58.0607C89.4397 57.9941 90.254 57.7276 90.0759 57.5496" stroke="black" stroke-width="1.15581" stroke-linecap="round"/>
<path d="M71.6749 87.4078C71.6749 86.9928 72.0489 86.7247 72.2729 86.3855C73.0623 85.1901 73.9002 84.0958 74.7996 82.9715C75.9357 81.5514 80.1319 78.0665 78.6187 79.0753" stroke="black" stroke-width="1.15581" stroke-linecap="round"/>
<path d="M71.6749 93.8308C72.1061 93.3457 72.3662 92.5495 72.8033 91.9984C73.8047 90.7357 74.6476 89.7372 75.8316 88.6229C76.1293 88.3427 79.4621 85.3 79.8339 85.6718" stroke="black" stroke-width="1.15581" stroke-linecap="round"/>
<path d="M87.8192 79.0753C88.5239 78.3706 89.8631 76.6318 90.9439 76.9921" stroke="black" stroke-width="1.15581" stroke-linecap="round"/>
<path d="M86.2568 74.2145C86.5768 74.1745 87.2068 73.3649 87.3852 73.1633C88.4858 71.9191 89.7635 70.9305 91.0403 69.8747C92.5417 68.6332 93.8871 67.1473 95.6213 66.2292C96.1503 65.9491 97.7918 65.3612 97.1933 65.3612" stroke="black" stroke-width="1.15581" stroke-linecap="round"/>
<path d="M94.5894 73.3465C95.2761 72.6598 95.9041 72.0259 96.7207 71.4659C96.8926 71.3481 97.7141 70.6474 97.7141 70.7426" stroke="black" stroke-width="1.15581" stroke-linecap="round"/>
<path d="M71.1541 101.642C72.5778 100.041 74.0547 98.5596 75.9183 97.3894C77.4951 96.3993 78.9867 95.3197 80.3932 94.1007C80.5596 93.9565 82.329 92.4859 82.0906 92.9627" stroke="black" stroke-width="1.15581" stroke-linecap="round"/>
<path d="M74.9733 104.594C75.0211 104.163 75.7691 103.576 76.0341 103.282C76.6136 102.641 77.2907 102.254 78.0112 101.797C78.8061 101.293 79.4873 100.551 80.1715 99.9066C81.1925 98.9456 81.9345 97.8552 83.1708 97.1291C83.3593 97.0184 85.1003 95.9704 84.8682 96.4347" stroke="black" stroke-width="1.15581" stroke-linecap="round"/>
<path d="M94.5894 89.838C94.6842 89.0792 96.8611 88.5124 97.3669 88.4492" stroke="black" stroke-width="1.15581" stroke-linecap="round"/>
<path d="M91.4564 108.816C91.4564 107.891 92.1152 107.021 92.7197 106.372C93.2228 105.832 93.7519 105.283 94.3133 104.803C94.4601 104.678 95.508 103.795 95.3207 104.357" stroke="black" stroke-width="1.15581" stroke-linecap="round"/>
<path d="M70.8205 115.35C70.5301 115.641 70.3721 116.028 70.1584 116.376C69.389 117.628 68.4625 118.806 67.8605 120.154C67.531 120.891 67.2487 121.605 66.8738 122.322C66.7112 122.633 66.3963 123.086 66.6141 123.413" stroke="black" stroke-width="0.462323" stroke-linecap="round"/>
<path d="M71.4049 117.337C71.2192 117.36 70.9067 118.084 70.8336 118.206C70.2452 119.193 69.7688 120.238 69.1459 121.205C68.7815 121.772 68.3563 122.307 68.0684 122.919C67.5939 123.927 67.1073 124.931 66.6143 125.931C66.4359 126.293 65.953 126.821 66.3806 127.035" stroke="black" stroke-width="0.462323" stroke-linecap="round"/>
<path d="M72.3393 119.323C71.6751 119.987 71.3747 120.937 70.8917 121.731C70.2137 122.846 69.6382 123.965 69.0092 125.107C68.7135 125.643 66.5022 129.143 66.8476 129.488" stroke="black" stroke-width="0.462323" stroke-linecap="round"/>
<path d="M73.0406 121.543C73.0406 122.072 72.4342 122.617 72.1578 123.01C71.5355 123.895 70.9876 124.873 70.4635 125.821C70.0162 126.629 69.5273 127.429 69.1263 128.261C68.9638 128.599 68.6006 129.629 68.6006 129.255" stroke="black" stroke-width="0.462323" stroke-linecap="round"/>
<path d="M73.9753 123.179C73.9614 123.291 73.8149 123.442 73.7417 123.529C73.2115 124.159 72.7877 125.124 72.4045 125.86C71.9839 126.667 71.5911 127.489 71.249 128.333C71.1521 128.572 71.0482 129.024 70.8206 129.138" stroke="black" stroke-width="0.462323" stroke-linecap="round"/>
<path d="M74.9101 124.698C74.9101 124.648 74.5459 125.312 74.4817 125.438C74.343 125.709 73.1681 127.566 73.508 127.736" stroke="black" stroke-width="0.462323" stroke-linecap="round"/>
<path d="M76.5459 125.165C76.471 125.839 75.1001 126.947 75.3774 127.502" stroke="black" stroke-width="0.462323" stroke-linecap="round"/>
<path d="M78.5322 125.749C78.4757 126.258 78.1211 126.909 77.948 127.385" stroke="black" stroke-width="0.462323" stroke-linecap="round"/>
<path d="M84.8418 110.56C84.7654 111.247 84.4325 111.967 84.3745 112.663" stroke="black" stroke-width="0.462323" stroke-linecap="round"/>
<path d="M86.4775 111.027C86.2391 111.057 86.1286 112.007 86.088 112.144C85.6816 113.512 85.2052 114.857 85.0754 116.285" stroke="black" stroke-width="0.462323" stroke-linecap="round"/>
<path d="M87.5292 112.78C87.5292 112.326 87.5898 112.279 87.4124 112.871C86.889 114.615 86.0345 116.349 85.7766 118.155" stroke="black" stroke-width="0.462323" stroke-linecap="round"/>
<path d="M89.1649 113.481C89.1496 113.649 89.0925 113.795 89.0221 113.948C88.5925 114.886 88.2082 115.841 87.8407 116.804C87.367 118.046 87.0205 119.371 86.7112 120.608" stroke="black" stroke-width="0.462323" stroke-linecap="round"/>
<path d="M90.8006 113.247C90.7884 113.356 90.7418 113.394 90.6837 113.481" stroke="black" stroke-width="0.462323" stroke-linecap="round"/>
<path d="M84.0238 135.097C84.2123 135.151 83.3168 137.047 83.2967 137.096C82.7932 138.328 82.008 139.856 82.1543 141.173" stroke="black" stroke-width="0.462323" stroke-linecap="round"/>
<path d="M86.4776 131.942C86.389 132.651 85.9941 133.626 85.8025 134.318C85.2682 136.248 84.5651 138.126 84.0369 140.056C83.9808 140.261 83.4885 142.025 83.7902 141.874" stroke="black" stroke-width="0.462323" stroke-linecap="round"/>
<path d="M87.7625 133.344C87.75 133.457 87.689 133.527 87.6457 133.63C87.0888 134.952 86.718 136.392 86.3344 137.771C86.0032 138.962 85.7186 140.165 85.3802 141.354C85.1702 142.093 85.0177 142.646 85.0751 143.393" stroke="black" stroke-width="0.462323" stroke-linecap="round"/>
<path d="M87.8797 138.135C87.9194 137.777 87.6653 138.913 87.6071 139.056C87.0409 140.451 86.2563 142.077 86.4776 143.626" stroke="black" stroke-width="0.462323" stroke-linecap="round"/>
<path d="M89.0479 140.004C89.0479 141.042 88.23 141.965 88.23 143.042" stroke="black" stroke-width="0.462323" stroke-linecap="round"/>
<path d="M90.2163 140.822C90.2163 141.368 89.9966 141.935 89.8658 142.458" stroke="black" stroke-width="0.462323" stroke-linecap="round"/>
<path d="M99.4471 109.275C99.4323 109.393 99.3483 109.614 99.3043 109.742C98.6427 111.666 98.1879 113.727 97.6944 115.701" stroke="black" stroke-width="0.462323" stroke-linecap="round"/>
<path d="M100.382 109.275C100.382 110.152 99.9049 111.187 99.7066 112.027C99.3471 113.549 98.8232 115.082 98.629 116.636" stroke="black" stroke-width="0.462323" stroke-linecap="round"/>
<path d="M101.667 110.91C101.667 111.434 101.413 111.934 101.239 112.416C100.838 113.526 100.403 114.53 100.265 115.701" stroke="black" stroke-width="0.462323" stroke-linecap="round"/>
<path d="M102.952 112.663C102.952 113.648 102.263 114.797 101.901 115.701" stroke="black" stroke-width="0.462323" stroke-linecap="round"/>
<path d="M104.822 112.663C104.404 113.185 104.237 114.144 104.004 114.766" stroke="black" stroke-width="0.462323" stroke-linecap="round"/>
<path d="M73.5079 92.3323C73.4837 92.5501 73.2488 92.7863 73.1703 92.9944C72.647 94.3823 72.1053 95.7608 71.5215 97.1228" stroke="black" stroke-width="0.462323" stroke-linecap="round"/>
<path d="M74.4427 93.267C73.9595 94.2334 73.5278 95.224 73.0665 96.201C72.3425 97.7345 71.3606 99.2938 71.0542 100.979" stroke="black" stroke-width="0.462323" stroke-linecap="round"/>
<path d="M75.3774 94.6692C75.3177 95.1466 74.6845 96.0544 74.4816 96.4218C73.1606 98.8139 71.8145 101.167 70.7036 103.666" stroke="black" stroke-width="0.462323" stroke-linecap="round"/>
<path d="M76.6626 96.4218C76.5549 97.4994 75.5693 98.7587 75.0788 99.6544C74.3803 100.93 73.1348 102.422 72.9237 103.9" stroke="black" stroke-width="0.462323" stroke-linecap="round"/>
<path d="M77.3638 98.7587C77.3212 99.2267 76.9712 99.6814 76.7536 100.07C75.9784 101.454 75.192 102.768 74.6764 104.25" stroke="black" stroke-width="0.462323" stroke-linecap="round"/>
<path d="M78.9997 99.5767C78.853 99.5951 78.7027 100.164 78.6362 100.284C78.0557 101.333 77.4566 102.372 76.9614 103.465C76.6719 104.104 76.3963 104.703 76.546 105.302" stroke="black" stroke-width="0.462323" stroke-linecap="round"/>
<path d="M80.5184 101.329C79.5297 102.671 78.8507 104.312 78.0647 105.769" stroke="black" stroke-width="0.462323" stroke-linecap="round"/>
<path d="M81.3364 102.614C81.307 102.409 81.1688 102.929 81.1546 102.965C80.7552 103.992 80.2215 104.974 79.8174 106.003" stroke="black" stroke-width="0.462323" stroke-linecap="round"/>
<path d="M82.2711 103.783C82.2711 104.432 81.6793 105.311 81.4532 105.886" stroke="black" stroke-width="0.462323" stroke-linecap="round"/>
<path d="M83.7901 104.601C83.718 105.322 83.2781 106.112 83.089 106.821" stroke="black" stroke-width="0.462323" stroke-linecap="round"/>
<path d="M68.2499 49.3342C67.9452 49.7152 67.8745 50.5165 67.7566 50.9441C67.3574 52.3911 66.9313 53.7905 66.8478 55.2932" stroke="black" stroke-width="0.462323" stroke-linecap="round"/>
<path d="M69.1847 50.97C68.8309 51.0584 68.4508 53.1133 68.4058 53.2614C68.0587 54.4029 67.6994 55.5458 67.5165 56.7277C67.4588 57.1006 67.385 57.4189 67.5489 57.7469" stroke="black" stroke-width="0.462323" stroke-linecap="round"/>
<path d="M70.2363 52.8395C70.2363 54.5037 69.2615 56.101 69.0678 57.7469" stroke="black" stroke-width="0.462323" stroke-linecap="round"/>
<path d="M71.7553 54.0079C71.6099 54.2078 71.6184 54.4829 71.5541 54.7155C71.3709 55.3777 71.1953 56.0253 71.0542 56.6953" stroke="black" stroke-width="0.462323" stroke-linecap="round"/>
<path d="M74.092 53.7742C73.8441 53.8362 73.6826 54.9791 73.6246 55.1763" stroke="black" stroke-width="0.462323" stroke-linecap="round"/>
<path d="M88.5806 50.6194C88.5396 50.9473 88.23 51.1301 88.23 51.5541" stroke="black" stroke-width="0.462323" stroke-linecap="round"/>
<path d="M90.45 49.6848C90.0988 49.7287 89.895 51.9874 89.8658 52.1385" stroke="black" stroke-width="0.462323" stroke-linecap="round"/>
<path d="M92.086 49.8016C92.0034 50.6271 91.4258 51.6119 91.1512 52.3722" stroke="black" stroke-width="0.462323" stroke-linecap="round"/>
<path d="M67.1983 63.9396C67.1024 65.7626 67.0812 67.501 67.3152 69.3143" stroke="black" stroke-width="0.462323" stroke-linecap="round"/>
<path d="M68.6005 63.1215C68.2939 63.5815 68.3955 64.6347 68.3604 65.1143C68.2384 66.7808 68.2742 68.2647 68.4837 69.8984" stroke="black" stroke-width="0.462323" stroke-linecap="round"/>
<path d="M70.47 62.7711C70.47 63.9412 70.3259 65.1113 70.2363 66.2763" stroke="black" stroke-width="0.462323" stroke-linecap="round"/>
<path d="M72.1059 61.369C72.1059 62.2659 72.035 63.1611 71.9891 64.0563" stroke="black" stroke-width="0.462323" stroke-linecap="round"/>
<path d="M95.2407 58.2142C95.0832 58.5488 94.996 58.913 94.8901 59.2658" stroke="black" stroke-width="0.462323" stroke-linecap="round"/>
<path d="M96.6429 58.0974C96.568 58.6967 96.2874 59.352 96.1756 59.9668" stroke="black" stroke-width="0.462323" stroke-linecap="round"/>
<path d="M98.1616 58.3311C98.1405 58.5422 98.0178 58.7321 97.9604 58.9348C97.6362 60.079 97.4475 61.2543 97.2269 62.4206" stroke="black" stroke-width="0.462323" stroke-linecap="round"/>
<path d="M99.4469 60.3173C98.8683 61.6916 98.8509 63.4162 98.629 64.8742" stroke="black" stroke-width="0.462323" stroke-linecap="round"/>
<path d="M72.4564 64.1732C72.2833 64.1949 72.2594 64.5026 72.2227 64.6406C71.838 66.0878 71.6628 67.6064 71.4048 69.0806" stroke="black" stroke-width="0.462323" stroke-linecap="round"/>
<path d="M74.5596 62.6543C74.3128 62.6851 74.2192 63.4972 74.1961 63.589C73.4142 66.6911 72.6455 69.7658 72.2227 72.9365" stroke="black" stroke-width="0.462323" stroke-linecap="round"/>
<path d="M76.6625 61.1353C76.6371 60.9827 76.5469 61.4262 76.5457 61.4339C76.1989 63.6015 75.6907 65.7609 75.2604 67.9122" stroke="black" stroke-width="0.462323" stroke-linecap="round"/>
<path d="M74.2091 72.8195V73.6374" stroke="black" stroke-width="0.462323" stroke-linecap="round"/>
<path d="M78.5322 59.6164C77.8878 61.1467 77.7345 63.0227 77.3637 64.6406" stroke="black" stroke-width="0.462323" stroke-linecap="round"/>
<path d="M79.9343 59.4995C79.9343 59.6916 79.8751 59.8353 79.8174 60.0188C79.4344 61.2375 79.2139 62.4555 78.9995 63.7058" stroke="black" stroke-width="0.462323" stroke-linecap="round"/>
<path d="M81.8038 58.7983C81.755 59.7261 81.3863 60.6857 81.2196 61.6026" stroke="black" stroke-width="0.462323" stroke-linecap="round"/>
<path d="M83.907 58.2142C83.8359 58.8535 83.5346 59.5355 83.4396 60.2006" stroke="black" stroke-width="0.462323" stroke-linecap="round"/>
<path d="M94.7732 58.6816C94.4101 58.727 94.2335 60.9064 94.189 61.1353" stroke="black" stroke-width="0.462323" stroke-linecap="round"/>
<path d="M95.708 59.4995C95.695 59.7206 95.6109 59.9318 95.5652 60.1486C95.291 61.451 95.09 62.743 94.8901 64.0563" stroke="black" stroke-width="0.462323" stroke-linecap="round"/>
<path d="M96.7596 61.4858C96.7596 61.7183 96.7239 61.9129 96.6622 62.1414C96.3418 63.3289 96.1324 64.4843 95.9417 65.6921" stroke="black" stroke-width="0.462323" stroke-linecap="round"/>
<path d="M109.963 82.7512C109.642 83.1128 109.607 83.7082 109.496 84.1533" stroke="black" stroke-width="0.462323" stroke-linecap="round"/>
<path d="M111.248 82.6344C111.187 83.1873 110.905 83.84 110.781 84.387" stroke="black" stroke-width="0.462323" stroke-linecap="round"/>
<path d="M112.416 83.4522C112.323 84.2001 112.017 85.0476 111.832 85.7891" stroke="black" stroke-width="0.462323" stroke-linecap="round"/>
<path d="M113.468 84.5038C113.368 85.5098 112.974 86.5496 112.767 87.5417" stroke="black" stroke-width="0.462323" stroke-linecap="round"/>
<path d="M114.403 85.4386C114.403 86.0598 114.183 86.7067 114.053 87.3081" stroke="black" stroke-width="0.462323" stroke-linecap="round"/>
<path d="M113.351 88.5934C113.263 89.3846 112.603 90.3096 112.3 91.0471" stroke="black" stroke-width="0.462323" stroke-linecap="round"/>
<path d="M114.052 89.2945C113.969 90.1251 113.405 90.982 113.118 91.7482" stroke="black" stroke-width="0.462323" stroke-linecap="round"/>
<path d="M114.87 89.9955C114.794 90.7593 114.303 91.6256 114.053 92.3323" stroke="black" stroke-width="0.462323" stroke-linecap="round"/>
<path d="M66.4975 135.681C66.2686 135.732 66.2139 136.083 66.1599 136.259C65.7182 137.699 65.3003 139.147 64.8617 140.588" stroke="black" stroke-width="0.462323" stroke-linecap="round"/>
<path d="M68.0163 136.616C68.0031 136.721 67.9153 136.744 67.8995 136.849C67.7384 137.924 67.2567 139.078 66.9648 140.121" stroke="black" stroke-width="0.462323" stroke-linecap="round"/>
<path d="M69.6523 137.434C69.5492 138.465 69.0571 139.564 68.8344 140.588" stroke="black" stroke-width="0.462323" stroke-linecap="round"/>
<path d="M69.8857 129.138C69.4549 129.281 69.1743 131.027 69.0678 131.358" stroke="black" stroke-width="0.462323" stroke-linecap="round"/>
<path d="M71.4046 129.021C71.2962 129.153 71.2336 129.294 71.1969 129.462C70.9827 130.441 70.7911 131.428 70.5867 132.409" stroke="black" stroke-width="0.462323" stroke-linecap="round"/>
<path d="M72.2226 135.564C72.1078 136.483 71.7239 137.564 71.5215 138.485" stroke="black" stroke-width="0.462323" stroke-linecap="round"/>
<path d="M69.5351 111.494C69.3885 111.513 69.4365 111.646 69.3534 111.741C68.7529 112.427 68.4759 113.476 68.133 114.299" stroke="black" stroke-width="0.462323" stroke-linecap="round"/>
<path d="M70.1195 113.13C69.9481 113.152 69.5806 113.835 69.4963 113.948C68.4679 115.331 67.6544 116.821 66.9648 118.388" stroke="black" stroke-width="0.462323" stroke-linecap="round"/>
<path d="M85.486 73.6753C82.5272 73.3979 82.0186 77.9517 82.1342 80.2634L83.9835 81.5347L83.0588 83.7308C82.7506 84.6554 82.6196 86.7359 84.5614 87.6605C86.9886 88.8163 89.1846 74.022 85.486 73.6753Z" fill="black"/>
<path d="M96.004 74.0221C93.1847 73.0823 93.0138 78.1951 93.1293 80.5067L94.9786 81.7781L94.054 83.9741C93.7458 84.8988 93.2755 87.3138 95.4261 87.3138C98.3008 87.3138 97.7378 74.5999 96.004 74.0221Z" fill="black"/>
</mask>
<g mask="url(#mask0_60_237)">
<rect x="39.8474" y="39.4907" width="83.1371" height="101.564" fill="#020F13"/>
</g>
<path d="M50.3433 141.533L47.9525 143.652H41.4779L39.0612 141.533V138.263H42.809V139.905H46.5955V135.382H41.4779L39.0612 133.249V125.482L41.4779 123.35H47.9525L50.3433 125.469V128.623H46.5955V127.098H42.809V131.621H47.9525L50.3433 133.753V141.533ZM66.869 141.533L64.4136 143.652H57.7323L55.3415 141.533V125.482L57.7323 123.35H64.4136L66.869 125.495V128.623H63.1213V127.098H59.0892V139.905H63.1213V138.263H66.869V141.533ZM83.6016 143.652H79.8538V135.382H75.6021V143.652H71.8543V123.35H75.6021V131.621H79.8538V123.35H83.6016V143.652ZM100.386 141.533L97.9691 143.652H90.9906L88.5998 141.533V125.482L90.9906 123.35H97.9691L100.386 125.482V141.533ZM96.6251 139.905V127.098H92.3475V139.905H96.6251ZM117.157 141.533L114.74 143.652H107.762L105.371 141.533V125.482L107.762 123.35H114.74L117.157 125.482V141.533ZM113.396 139.905V127.098H109.119V139.905H113.396ZM131.434 143.652H122.142V123.35H125.903V139.905H131.434V143.652Z" fill="#020F13"/>
<path d="M29.3213 49.3659L32.1333 47.0341L29.3947 43.7314L26.5826 46.0631L29.3213 49.3659ZM34.3369 55.4147L37.149 53.0829L34.4103 49.7801L31.5983 52.1119L34.3369 55.4147ZM40.8809 51.9949L40.409 54.9979L33.8695 60.4204L21.5769 45.5957L28.1164 40.1732L31.1626 40.2748L34.942 44.8326L34.9492 46.9924L37.0938 47.4277L40.8809 51.9949Z" fill="#020F13"/>
<path d="M54.4095 46.5374L51.7901 43.0327L48.4255 44.6349L49.4955 48.8776L46.2195 50.4377L41.4145 31.3953L45.9301 29.2449L57.6856 44.9773L54.4095 46.5374ZM49.6197 40.1287L46.1021 35.4223L47.5389 41.1196L49.6197 40.1287Z" fill="#020F13"/>
<path d="M73.7191 40.9844L69.9746 41.7011L65.5258 34.5647L64.4904 34.7629L65.9653 42.4685L62.4616 43.1391L58.8413 24.2242L67.2332 22.618L69.8408 24.1783L71.1705 31.1254L69.2129 33.8091L73.7191 40.9844ZM63.8198 31.2592L67.4438 30.5656L66.635 26.3395L63.0109 27.0332L63.8198 31.2592Z" fill="#020F13"/>
<path d="M83.0082 29.3708L86.6569 29.5505L86.8679 25.2652L83.2193 25.0855L83.0082 29.3708ZM82.6217 37.219L86.2703 37.3988L86.4814 33.1134L82.8327 32.9337L82.6217 37.219ZM89.7573 39.117L87.381 41.0128L78.8961 40.5949L79.8435 21.3599L88.3284 21.7778L90.5062 23.9102L90.215 29.8239L88.7617 31.4215L90.0491 33.191L89.7573 39.117Z" fill="#020F13"/>
<path d="M103.883 43.9679L94.9459 41.4695L100.131 22.9223L108.997 25.4009L108.04 28.8246L102.598 27.3031L101.442 31.4352L106.129 32.7455L105.169 36.181L100.482 34.8708L99.3268 39.0029L104.84 40.5442L103.883 43.9679Z" fill="#020F13"/>
<path d="M118.95 51.0685L115.61 49.2298L116.741 40.8967L115.818 40.3883L112.034 47.2611L108.909 45.5406L118.197 28.6701L125.682 32.7909L126.693 35.6566L123.282 41.8528L120.062 42.6688L118.95 51.0685ZM117.538 37.2633L120.771 39.0429L122.846 35.2736L119.614 33.4941L117.538 37.2633Z" fill="#020F13"/>
<path d="M133.151 35.0131L136.421 37.258L130.525 44.7799L128.249 43.2169L133.151 35.0131Z" fill="#020F13"/>
<path d="M135.922 63.3238L132.903 63.0538L128.689 58.5865L128.578 55.5395L130.834 53.4112L133.273 55.997L132.141 57.0654L134.606 59.678L137.727 56.7337L134.395 53.2027L134.294 50.1472L139.652 45.0915L142.697 45.3709L146.911 49.8382L147.005 52.8674L144.83 54.92L142.39 52.3341L143.442 51.3415L140.977 48.7289L137.857 51.6732L141.205 55.222L141.29 58.2596L135.922 63.3238Z" fill="#020F13"/>
</svg>
